<svg xmlns="http://www.w3.org/2000/svg" width="21.7" height="25.9" viewBox="0 0 21.7 25.9">
  <defs>
    <style>
      .cls-1 {
        stroke: #fff;
        stroke-width: 0.7px;
      }
    </style>
  </defs>
  <g id="bell" transform="translate(0.35 0.35)">
    <path id="패스_1" data-name="패스 1" class="cls-1" d="M137.645,421.175a4.317,4.317,0,0,1-4.312-4.312.862.862,0,1,1,1.725,0,2.587,2.587,0,1,0,5.175,0,.863.863,0,1,1,1.725,0A4.317,4.317,0,0,1,137.645,421.175Zm0,0" transform="translate(-127.145 -395.975)"/>
    <path id="패스_2" data-name="패스 2" class="cls-1" d="M19.162,82.3H1.837A1.811,1.811,0,0,1,0,80.521a1.755,1.755,0,0,1,.643-1.352A6.727,6.727,0,0,0,3.15,73.952V71.117A7.244,7.244,0,0,1,10.5,64a7.244,7.244,0,0,1,7.35,7.117v2.835a6.726,6.726,0,0,0,2.5,5.21A1.757,1.757,0,0,1,21,80.521,1.811,1.811,0,0,1,19.162,82.3ZM10.5,65.525a5.692,5.692,0,0,0-5.775,5.592v2.835A8.227,8.227,0,0,1,1.67,80.326a.25.25,0,0,0-.095.2.261.261,0,0,0,.262.254H19.162a.261.261,0,0,0,.263-.254.248.248,0,0,0-.092-.193,8.23,8.23,0,0,1-3.058-6.376V71.117A5.692,5.692,0,0,0,10.5,65.525Zm0,0" transform="translate(0 -60.55)"/>
    <path id="패스_3" data-name="패스 3" class="cls-1" d="M198.195,5.175a.863.863,0,0,1-.862-.862V.862a.862.862,0,1,1,1.725,0v3.45A.863.863,0,0,1,198.195,5.175Zm0,0" transform="translate(-187.695)"/>
  </g>
</svg>
