<svg xmlns="http://www.w3.org/2000/svg" width="18.72" height="25.267" viewBox="0 0 18.72 25.267">
  <g id="pin" transform="translate(-47.98 0.1)">
    <g id="그룹_34" data-name="그룹 34" transform="translate(48.08)">
      <g id="그룹_33" data-name="그룹 33" transform="translate(0)">
        <path id="패스_47" data-name="패스 47" d="M57.34,0a9.27,9.27,0,0,0-9.26,9.26,10.683,10.683,0,0,0,.785,3.565,14.931,14.931,0,0,0,1.07,2l6.349,9.62a1.208,1.208,0,0,0,2.11,0l6.35-9.621a14.871,14.871,0,0,0,1.07-2A10.681,10.681,0,0,0,66.6,9.26,9.27,9.27,0,0,0,57.34,0Zm7.471,12.4a13.685,13.685,0,0,1-.976,1.825l-6.35,9.621c-.125.19-.165.19-.29,0l-6.35-9.621A13.689,13.689,0,0,1,49.87,12.4a9.7,9.7,0,0,1-.7-3.142,8.171,8.171,0,0,1,16.341,0A9.706,9.706,0,0,1,64.811,12.4Z" transform="translate(-48.08)" stroke="#000" stroke-width="0.2"/>
        <path id="패스_48" data-name="패스 48" d="M116.982,64.008a4.9,4.9,0,1,0,4.9,4.9A4.908,4.908,0,0,0,116.982,64.008Zm0,8.715A3.813,3.813,0,1,1,120.8,68.91,3.817,3.817,0,0,1,116.982,72.723Z" transform="translate(-107.722 -59.65)" stroke="#000" stroke-width="0.2"/>
      </g>
    </g>
  </g>
</svg>
