<svg xmlns="http://www.w3.org/2000/svg" width="24" height="24" viewBox="0 0 24 24">
  <g id="상세보기" transform="translate(-100 -455)">
    <g id="타원_18" data-name="타원 18" transform="translate(100 455)" fill="#fff" stroke="#dfdfdf" stroke-width="1">
      <circle cx="12" cy="12" r="12" stroke="none"/>
      <circle cx="12" cy="12" r="11.5" fill="none"/>
    </g>
    <g id="그룹_62" data-name="그룹 62" transform="translate(-229.434 211.506)">
      <path id="사각형_160" data-name="사각형 160" d="M0,0H1.817a0,0,0,0,1,0,0V5.611a.908.908,0,0,1-.908.908h0A.908.908,0,0,1,0,5.611V0A0,0,0,0,1,0,0Z" transform="translate(339.044 255.577) rotate(45)" fill="#fff" stroke="#e2e2e2" stroke-linecap="round" stroke-linejoin="round" stroke-width="1"/>
      <circle id="타원_37" data-name="타원 37" cx="4.659" cy="4.659" r="4.659" transform="translate(338.004 248.589)" fill="#fff" stroke="#e2e2e2" stroke-linecap="round" stroke-linejoin="round" stroke-width="1"/>
      <line id="선_28" data-name="선 28" y2="3.888" transform="translate(342.663 251.304)" fill="#fff" stroke="#e2e2e2" stroke-linecap="round" stroke-linejoin="round" stroke-width="1.2"/>
      <line id="선_29" data-name="선 29" x2="3.888" transform="translate(340.719 253.249)" fill="#fff" stroke="#e2e2e2" stroke-linecap="round" stroke-linejoin="round" stroke-width="1.2"/>
    </g>
  </g>
</svg>
