<svg xmlns="http://www.w3.org/2000/svg" width="23.367" height="23.367" viewBox="0 0 23.367 23.367">
  <g id="스마일" transform="translate(0.5 0.5)">
    <path id="패스_77" data-name="패스 77" d="M113.027,119.663a11.184,11.184,0,1,1-11.184-11.183A11.183,11.183,0,0,1,113.027,119.663Z" transform="translate(-90.66 -108.48)" fill="none" stroke="#fff" stroke-width="1"/>
    <path id="패스_78" data-name="패스 78" d="M104.031,123.975a1.283,1.283,0,1,1-1.283-1.283A1.283,1.283,0,0,1,104.031,123.975Z" transform="translate(-94.9 -114.057)" fill="#fff"/>
    <path id="패스_79" data-name="패스 79" d="M116.119,123.975a1.283,1.283,0,1,1-1.282-1.283A1.283,1.283,0,0,1,116.119,123.975Z" transform="translate(-99.643 -114.057)" fill="#fff"/>
    <path id="패스_80" data-name="패스 80" d="M107.175,132.716a5.775,5.775,0,0,1-5.14-2.729.534.534,0,0,1,.941-.506,5.142,5.142,0,0,0,8.44-.078.534.534,0,0,1,.955.479A5.713,5.713,0,0,1,107.175,132.716Z" transform="translate(-95.708 -116.676)" fill="#fff"/>
  </g>
</svg>
