<svg xmlns="http://www.w3.org/2000/svg" width="12.092" height="9.81" viewBox="0 0 12.092 9.81">
  <g id="판매자" transform="translate(-65.294 -71.08)">
    <rect id="사각형_676" data-name="사각형 676" width="10.652" height="6.871" transform="translate(66.014 73.719)" fill="#fff" stroke="#ee757c" stroke-linecap="round" stroke-linejoin="round" stroke-width="0.6"/>
    <path id="사각형_677" data-name="사각형 677" d="M0,0H2.3a0,0,0,0,1,0,0V1.408A1.149,1.149,0,0,1,1.149,2.557h0A1.149,1.149,0,0,1,0,1.408V0A0,0,0,0,1,0,0Z" transform="translate(65.594 72.846)" fill="#fff" stroke="#ee757c" stroke-linecap="round" stroke-linejoin="round" stroke-width="0.6"/>
    <path id="사각형_678" data-name="사각형 678" d="M0,0H2.3a0,0,0,0,1,0,0V1.408A1.149,1.149,0,0,1,1.149,2.557h0A1.149,1.149,0,0,1,0,1.408V0A0,0,0,0,1,0,0Z" transform="translate(67.892 72.846)" fill="#fff" stroke="#ee757c" stroke-linecap="round" stroke-linejoin="round" stroke-width="0.6"/>
    <path id="사각형_679" data-name="사각형 679" d="M0,0H2.3a0,0,0,0,1,0,0V1.408A1.149,1.149,0,0,1,1.149,2.557h0A1.149,1.149,0,0,1,0,1.408V0A0,0,0,0,1,0,0Z" transform="translate(70.19 72.846)" fill="#fff" stroke="#ee757c" stroke-linecap="round" stroke-linejoin="round" stroke-width="0.6"/>
    <path id="사각형_680" data-name="사각형 680" d="M0,0H2.3a0,0,0,0,1,0,0V1.408A1.149,1.149,0,0,1,1.149,2.557h0A1.149,1.149,0,0,1,0,1.408V0A0,0,0,0,1,0,0Z" transform="translate(72.489 72.846)" fill="#fff" stroke="#ee757c" stroke-linecap="round" stroke-linejoin="round" stroke-width="0.6"/>
    <path id="사각형_681" data-name="사각형 681" d="M0,0H2.3a0,0,0,0,1,0,0V1.408A1.149,1.149,0,0,1,1.149,2.557h0A1.149,1.149,0,0,1,0,1.408V0A0,0,0,0,1,0,0Z" transform="translate(74.787 72.846)" fill="#fff" stroke="#ee757c" stroke-linecap="round" stroke-linejoin="round" stroke-width="0.6"/>
    <rect id="사각형_682" data-name="사각형 682" width="2.298" height="3.171" transform="translate(70.19 77.419)" fill="#fff" stroke="#ee757c" stroke-linecap="round" stroke-linejoin="round" stroke-width="0.6"/>
    <path id="패스_136" data-name="패스 136" d="M68.32,71.38H66.308l-.714,1.466h2.3Z" fill="#fff" stroke="#ee757c" stroke-linecap="round" stroke-linejoin="round" stroke-width="0.6"/>
    <path id="패스_137" data-name="패스 137" d="M73.7,71.38H71.689l-.428,1.466h2.3Z" transform="translate(-3.369)" fill="#fff" stroke="#ee757c" stroke-linecap="round" stroke-linejoin="round" stroke-width="0.6"/>
    <path id="패스_138" data-name="패스 138" d="M79.083,71.38H77.07l-.143,1.466h2.3Z" transform="translate(-6.737)" fill="#fff" stroke="#ee757c" stroke-linecap="round" stroke-linejoin="round" stroke-width="0.6"/>
    <path id="패스_139" data-name="패스 139" d="M84.255,71.38H82.242l.143,1.466h2.3Z" transform="translate(-9.896)" fill="#fff" stroke="#ee757c" stroke-linecap="round" stroke-linejoin="round" stroke-width="0.6"/>
    <path id="패스_140" data-name="패스 140" d="M89.218,71.38H87.205l.428,1.466h2.3Z" transform="translate(-12.846)" fill="#fff" stroke="#ee757c" stroke-linecap="round" stroke-linejoin="round" stroke-width="0.6"/>
  </g>
</svg>
