<svg xmlns="http://www.w3.org/2000/svg" width="12" height="11.999" viewBox="0 0 12 11.999">
  <g id="chat" transform="translate(0 -0.027)">
    <g id="그룹_25" data-name="그룹 25" transform="translate(0 0.027)">
      <g id="그룹_24" data-name="그룹 24" transform="translate(0)">
        <path id="패스_28" data-name="패스 28" d="M5.485.027A5.491,5.491,0,0,0,0,5.511a5.42,5.42,0,0,0,.832,2.9l-.8,2a.422.422,0,0,0,.549.548l2-.8a5.413,5.413,0,0,0,2.9.833,5.484,5.484,0,1,0,0-10.969Zm0,10.125A4.574,4.574,0,0,1,2.87,9.343a.422.422,0,0,0-.4-.045L1.18,9.816,1.7,8.524a.425.425,0,0,0-.045-.4A4.574,4.574,0,0,1,.844,5.511a4.641,4.641,0,1,1,4.641,4.641Z" transform="translate(0 -0.027)" fill="#4b4b4b"/>
      </g>
    </g>
    <g id="그룹_27" data-name="그룹 27" transform="translate(4.346 4.373)">
      <g id="그룹_26" data-name="그룹 26">
        <path id="패스_29" data-name="패스 29" d="M228.721,227.226a4.649,4.649,0,0,0-.291-5.274.422.422,0,1,0-.667.516,3.806,3.806,0,0,1,.137,4.472.421.421,0,0,0-.044.4l.37.927-.927-.37a.421.421,0,0,0-.4.044,3.86,3.86,0,0,1-4.472-.138.422.422,0,1,0-.518.667,4.722,4.722,0,0,0,5.275.291l1.636.653a.453.453,0,0,0,.158.03.425.425,0,0,0,.3-.123.421.421,0,0,0,.094-.455Z" transform="translate(-221.75 -221.787)" fill="#4b4b4b"/>
      </g>
    </g>
  </g>
</svg>
