<svg xmlns="http://www.w3.org/2000/svg" width="20.428" height="18.353" viewBox="0 0 20.428 18.353">
  <g id="그룹_71" data-name="그룹 71" transform="translate(0)">
    <circle id="타원_12" data-name="타원 12" cx="6.5" cy="6.5" r="6.5" transform="translate(0.865 3.928)" fill="#fff"/>
    <path id="패스_19" data-name="패스 19" d="M358.049,652.356a.675.675,0,0,1-.032-1.35,3.961,3.961,0,0,0,3.211-2.107,5.387,5.387,0,0,1-1.966-.555.675.675,0,0,1,.245-1.287,2.278,2.278,0,0,0,1.817-1.358,9.7,9.7,0,0,0,.712-2.867c.055-.374.111-.755.181-1.129a19.344,19.344,0,0,0-2.346.309,16.742,16.742,0,0,0-3.891,1.477l-.236.112a.675.675,0,0,1-.965-.587,9.813,9.813,0,0,1,.108-1.667,2.777,2.777,0,0,0-1.768,2.279.675.675,0,0,1-1.349.056c-.052-1.255.978-3.451,3.962-4a.675.675,0,0,1,.74.938,4.542,4.542,0,0,0-.3,1.285,15.168,15.168,0,0,1,3.418-1.212,23.956,23.956,0,0,1,2.986-.372l.443-.037a.675.675,0,0,1,.707.857,15.41,15.41,0,0,0-.357,1.892,10.646,10.646,0,0,1-.846,3.284,4.264,4.264,0,0,1-.9,1.208.722.722,0,0,0,.147-.056.675.675,0,0,1,.989.6c-.005,2.327-2.475,4.185-4.68,4.292Z" transform="translate(-343.327 -639.667)" fill="#fff"/>
    <g id="그룹_16" data-name="그룹 16" transform="translate(0 3.103)">
      <path id="패스_20" data-name="패스 20" d="M334.391,664.107a7.625,7.625,0,1,1,7.626-7.626A7.634,7.634,0,0,1,334.391,664.107Zm0-13.563a5.937,5.937,0,1,0,5.937,5.937A5.944,5.944,0,0,0,334.391,650.544Z" transform="translate(-326.766 -648.856)" fill="#fff"/>
      <path id="패스_21" data-name="패스 21" d="M347.752,658.383a.675.675,0,0,1-.675-.675v-2.134a.675.675,0,0,1,.719-.674,5.874,5.874,0,0,1,2.751.895.675.675,0,1,1-.722,1.141,4.5,4.5,0,0,0-1.4-.583v1.355A.675.675,0,0,1,347.752,658.383Z" transform="translate(-340.219 -652.858)" fill="#f06f77"/>
      <path id="패스_22" data-name="패스 22" d="M345.334,665.514a.675.675,0,0,1-.428-1.2l4.959-4.057a.675.675,0,0,1,.855,1.045l-4.959,4.058A.672.672,0,0,1,345.334,665.514Z" transform="translate(-338.617 -656.308)" fill="#f06f77"/>
      <path id="패스_23" data-name="패스 23" d="M346.026,668.434a1.32,1.32,0,1,0,1.321-1.32A1.32,1.32,0,0,0,346.026,668.434Z" transform="translate(-339.523 -660.95)" fill="#f06f77"/>
    </g>
  </g>
</svg>
