<svg xmlns="http://www.w3.org/2000/svg" width="7.727" height="10.388" viewBox="0 0 7.727 10.388">
  <g id="pin" transform="translate(-47.98 0.1)">
    <g id="그룹_34" data-name="그룹 34" transform="translate(48.08)">
      <g id="그룹_33" data-name="그룹 33" transform="translate(0)">
        <path id="패스_47" data-name="패스 47" d="M51.844,0A3.768,3.768,0,0,0,48.08,3.764,4.342,4.342,0,0,0,48.4,5.212a6.069,6.069,0,0,0,.435.814l2.58,3.91a.491.491,0,0,0,.858,0l2.581-3.91a6.044,6.044,0,0,0,.435-.814,4.341,4.341,0,0,0,.319-1.449A3.768,3.768,0,0,0,51.844,0ZM54.88,5.041a5.562,5.562,0,0,1-.4.742L51.9,9.692c-.051.077-.067.077-.118,0L49.2,5.782a5.564,5.564,0,0,1-.4-.742,3.942,3.942,0,0,1-.285-1.277,3.321,3.321,0,0,1,6.642,0A3.945,3.945,0,0,1,54.88,5.041Z" transform="translate(-48.08)" stroke="#000" stroke-width="0.2"/>
        <path id="패스_48" data-name="패스 48" d="M114.072,64.008A1.992,1.992,0,1,0,116.065,66,1.995,1.995,0,0,0,114.072,64.008Zm0,3.542a1.55,1.55,0,1,1,1.55-1.55A1.552,1.552,0,0,1,114.072,67.55Z" transform="translate(-110.309 -62.237)" stroke="#000" stroke-width="0.2"/>
      </g>
    </g>
  </g>
</svg>
