<svg xmlns="http://www.w3.org/2000/svg" width="62" height="68" viewBox="0 0 62 68">
  <g id="주문내역" transform="translate(-265 -186)">
    <circle id="타원_71" data-name="타원 71" cx="31" cy="31" r="31" transform="translate(265 192)" fill="#fed4d6" opacity="0.29"/>
    <g id="합치기_13" data-name="합치기 13" transform="translate(667 8667)" fill="#ec636b">
      <path d="M -371.4994812011719 -8459.541015625 C -371.5873718261719 -8459.541015625 -371.8056640625 -8459.5654296875 -371.9344482421875 -8459.794921875 L -373.8758239746094 -8463.2451171875 L -374.0191955566406 -8463.5 L -374.3115844726563 -8463.5 L -378.998291015625 -8463.5 C -381.4806213378906 -8463.5 -383.5001525878906 -8465.5185546875 -383.5001525878906 -8468 L -383.5001525878906 -8476.0009765625 C -383.5001525878906 -8478.4814453125 -381.4806213378906 -8480.5 -378.998291015625 -8480.5 L -362.9987182617188 -8480.5 C -360.5175476074219 -8480.5 -358.4989929199219 -8478.4814453125 -358.4989929199219 -8476.0009765625 L -358.4989929199219 -8468 C -358.4989929199219 -8465.5185546875 -360.5175476074219 -8463.5 -362.9987182617188 -8463.5 L -368.685791015625 -8463.5 L -368.9781799316406 -8463.5 L -369.1215515136719 -8463.2451171875 L -371.0628356933594 -8459.794921875 C -371.1923522949219 -8459.5654296875 -371.411376953125 -8459.541015625 -371.4994812011719 -8459.541015625 Z" stroke="none"/>
      <path d="M -371.499267578125 -8460.041015625 C -371.4988403320313 -8460.041015625 -371.4984741210938 -8460.041015625 -371.4981079101563 -8460.041015625 L -369.5573120117188 -8463.490234375 L -369.2705688476563 -8464 L -368.685791015625 -8464 L -362.9987182617188 -8464 C -360.7932739257813 -8464 -358.9989929199219 -8465.7939453125 -358.9989929199219 -8468 L -358.9989929199219 -8476.0009765625 C -358.9989929199219 -8478.2060546875 -360.7932739257813 -8480 -362.9987182617188 -8480 L -378.998291015625 -8480 C -381.2049255371094 -8480 -383.0001525878906 -8478.2060546875 -383.0001525878906 -8476.0009765625 L -383.0001525878906 -8468 C -383.0001525878906 -8465.7939453125 -381.2049255371094 -8464 -378.998291015625 -8464 L -374.3115844726563 -8464 L -373.726806640625 -8464 L -373.4400634765625 -8463.490234375 L -371.499267578125 -8460.041015625 M -371.4994812011719 -8459.041015625 C -371.8397827148438 -8459.041015625 -372.1797790527344 -8459.2109375 -372.3703002929688 -8459.5498046875 L -374.3115844726563 -8463 L -378.998291015625 -8463 C -381.7610168457031 -8463 -384.0001525878906 -8465.2392578125 -384.0001525878906 -8468 L -384.0001525878906 -8476.0009765625 C -384.0001525878906 -8478.76171875 -381.7610168457031 -8481 -378.998291015625 -8481 L -362.9987182617188 -8481 C -360.2381286621094 -8481 -357.9989929199219 -8478.76171875 -357.9989929199219 -8476.0009765625 L -357.9989929199219 -8468 C -357.9989929199219 -8465.2392578125 -360.2381286621094 -8463 -362.9987182617188 -8463 L -368.685791015625 -8463 L -370.6270751953125 -8459.5498046875 C -370.8186340332031 -8459.2109375 -371.1592102050781 -8459.041015625 -371.4994812011719 -8459.041015625 Z" stroke="none" fill="#ec636b"/>
    </g>
    <g id="receipt" transform="translate(281 209.959)">
      <path id="패스_106" data-name="패스 106" d="M27.109,0H7.2A3.6,3.6,0,0,0,3.6,3.6V25.31H.9a.9.9,0,0,0-.9.9,4.5,4.5,0,0,0,4.5,4.5H21.712a3.6,3.6,0,0,0,3.6-3.6V9h4.5a.9.9,0,0,0,.9-.9V3.6A3.6,3.6,0,0,0,27.109,0ZM4.5,28.909a2.7,2.7,0,0,1-2.545-1.8H18.113a3.577,3.577,0,0,0,.483,1.8Zm17.213,0a1.8,1.8,0,0,1-1.8-1.8v-.9a.9.9,0,0,0-.9-.9H5.4V3.6A1.8,1.8,0,0,1,7.2,1.8h16.8a3.576,3.576,0,0,0-.484,1.8V27.109a1.8,1.8,0,0,1-1.8,1.8ZM28.909,7.2h-3.6V3.6a1.8,1.8,0,0,1,3.6,0Zm0,0" fill="#333" stroke="#fff3f3" stroke-width="0.8"/>
      <path id="패스_107" data-name="패스 107" d="M182.535,81.933l5.4-5.4a.9.9,0,1,0-1.272-1.272l-5.4,5.4a.9.9,0,0,0,1.272,1.272Zm0,0" transform="translate(-170.144 -70.501)" fill="#333" stroke="#fff3f3" stroke-width="1"/>
      <path id="패스_108" data-name="패스 108" d="M182.8,75.9a.9.9,0,1,1-.9-.9A.9.9,0,0,1,182.8,75.9Zm0,0" transform="translate(-170.144 -70.502)" fill="#333" stroke="#fff3f3" stroke-width="0.2"/>
      <path id="패스_109" data-name="패스 109" d="M272.8,165.9a.9.9,0,1,1-.9-.9A.9.9,0,0,1,272.8,165.9Zm0,0" transform="translate(-254.746 -155.104)" fill="#333" stroke="#fff3f3" stroke-width="0.2"/>
      <path id="패스_110" data-name="패스 110" d="M133.615,242H120.9a.9.9,0,1,0,0,1.8h12.715a.9.9,0,1,0,0-1.8Zm0,0" transform="translate(-112.803 -227.486)" fill="#333" stroke="#fff3f3" stroke-width="1"/>
      <path id="패스_111" data-name="패스 111" d="M133.615,302H120.9a.9.9,0,1,0,0,1.8h12.715a.9.9,0,1,0,0-1.8Zm0,0" transform="translate(-112.803 -283.887)" fill="#333" stroke="#fff3f3" stroke-width="1"/>
      <path id="패스_112" data-name="패스 112" d="M133.615,362H120.9a.9.9,0,1,0,0,1.8h12.715a.9.9,0,1,0,0-1.8Zm0,0" transform="translate(-112.803 -340.288)" fill="#333" stroke="#fff3f3" stroke-width="1"/>
    </g>
    <g id="carrot" transform="translate(291 189.332)">
      <path id="패스_113" data-name="패스 113" d="M9.993,2.4a.8.8,0,0,0-.569-.6A1.02,1.02,0,0,0,9.453.548,1.02,1.02,0,0,0,8.2.577.8.8,0,0,0,7.6.008.93.93,0,0,0,6.7.632.652.652,0,0,0,6.253.5c-.472.038-.8.625-.739,1.336a2.059,2.059,0,0,0,.12.556,2.406,2.406,0,0,0-.366-.028,2.358,2.358,0,0,0-1.679.7A12.822,12.822,0,0,0,2.561,4.329c-.473.647-.948,1.358-1.337,2A12.3,12.3,0,0,0,.2,8.352c-.264.721-.266,1.2-.007,1.457A.74.74,0,0,0,.741,10a2.755,2.755,0,0,0,.908-.2A12.3,12.3,0,0,0,3.67,8.778,22.593,22.593,0,0,0,6.947,6.412a2.358,2.358,0,0,0,.7-1.679,2.407,2.407,0,0,0-.028-.366,2.064,2.064,0,0,0,.556.12q.082.007.162.007c.636,0,1.139-.31,1.174-.746A.652.652,0,0,0,9.369,3.3.929.929,0,0,0,9.993,2.4ZM6.67,6.135A16.812,16.812,0,0,1,4.772,7.6c-.237-.123-.531-.275-.842-.441a.134.134,0,0,0-.167.2,5.423,5.423,0,0,0,.38.422q.072.072.146.14c-.266.175-.542.35-.821.518q-.379.229-.72.415c-.165-.086-.344-.18-.53-.279a.134.134,0,0,0-.167.2q.125.155.264.3a7.93,7.93,0,0,1-.8.351c-.756.276-.984.16-1.046.1s-.179-.29.1-1.046a11.3,11.3,0,0,1,.885-1.774c.033.035.066.069.1.1a5.42,5.42,0,0,0,.435.39.134.134,0,0,0,.2-.167l-.436-.825c.295-.471.6-.925.889-1.332q.084.092.173.182a5.424,5.424,0,0,0,.435.39.134.134,0,0,0,.2-.167l-.466-.882a12.11,12.11,0,0,1,.853-1.051,5.427,5.427,0,0,0,.413.464q.115.115.235.222A.134.134,0,0,0,4.7,3.874a5.353,5.353,0,0,1-.4-.868A1.984,1.984,0,0,1,7.251,4.733a2,2,0,0,1-.057.475c-.241-.125-.542-.281-.861-.451a.134.134,0,0,0-.167.2,5.409,5.409,0,0,0,.8.8,2,2,0,0,1-.3.375ZM8.957,3.047A.2.2,0,0,0,8.9,3.4a.4.4,0,0,1,.215.321c-.017.214-.4.423-.916.381a1.288,1.288,0,0,1-.733-.259A2.357,2.357,0,0,0,7.1,3.224,1.341,1.341,0,0,0,8.186,3.01.059.059,0,0,0,8.144,2.9a2.733,2.733,0,0,1-.733.018c.019-.018.224-.231.3-.323A.991.991,0,0,0,8.4,2.466a.059.059,0,0,0-.038-.109,1.925,1.925,0,0,1-.467.006,3.978,3.978,0,0,0,.283-.458.059.059,0,0,0-.08-.08,3.98,3.98,0,0,0-.458.283,1.925,1.925,0,0,1,.006-.467A.059.059,0,0,0,7.535,1.6a.991.991,0,0,0-.132.686c-.092.077-.305.283-.323.3A2.734,2.734,0,0,1,7.1,1.858a.059.059,0,0,0-.107-.043A1.341,1.341,0,0,0,6.777,2.9a2.357,2.357,0,0,0-.614-.367A1.289,1.289,0,0,1,5.9,1.8c-.042-.518.167-.9.381-.916a.4.4,0,0,1,.321.215.2.2,0,0,0,.349-.055c.117-.4.376-.683.59-.65.165.026.3.236.348.537a.2.2,0,0,0,.318.12c.366-.3.79-.4.967-.227s.077.6-.227.967a.2.2,0,0,0,.12.318c.3.046.511.183.537.348.033.214-.252.473-.65.59Z" fill="#fff" stroke="#fff" stroke-width="0.2"/>
    </g>
  </g>
</svg>
