<svg xmlns="http://www.w3.org/2000/svg" width="20" height="19.167" viewBox="0 0 20 19.167">
  <g id="paper-plane" transform="translate(0 0)">
    <path id="패스_63" data-name="패스 63" d="M8.75,17.612v3.865a.625.625,0,0,0,1.128.37l2.261-3.077Z" transform="translate(-1.458 -2.935)" fill="#dfdfdf"/>
    <path id="패스_64" data-name="패스 64" d="M19.737.116a.625.625,0,0,0-.652-.045L.336,9.862a.625.625,0,0,0,.087,1.146L5.635,12.79,16.736,3.3,8.146,13.647l8.736,2.986a.639.639,0,0,0,.2.033.624.624,0,0,0,.618-.532L19.993.717a.626.626,0,0,0-.256-.6Z" transform="translate(0 0)" fill="#dfdfdf"/>
  </g>
</svg>
