<svg xmlns="http://www.w3.org/2000/svg" xmlns:xlink="http://www.w3.org/1999/xlink" width="15" height="15" viewBox="0 0 15 15">
  <defs>
    <clipPath id="clip-path">
      <rect width="6.643" height="6.864" fill="none"/>
    </clipPath>
  </defs>
  <g id="전체보기_이벤트" transform="translate(-368 -235)">
    <g id="스크롤_그룹_1" data-name="스크롤 그룹 1" transform="translate(372 239)" clip-path="url(#clip-path)" style="isolation: isolate">
      <path id="패스_69" data-name="패스 69" d="M3.887-7.995a.7.7,0,0,1,.4.117.42.42,0,0,1,.175.377v2.314h2.3a.386.386,0,0,1,.331.149.606.606,0,0,1,.11.371.635.635,0,0,1-.11.377.379.379,0,0,1-.331.156h-2.3v2.509a.42.42,0,0,1-.175.377.7.7,0,0,1-.4.117.73.73,0,0,1-.4-.117A.415.415,0,0,1,3.3-1.625V-4.134H1A.379.379,0,0,1,.67-4.29a.635.635,0,0,1-.111-.377A.606.606,0,0,1,.67-5.038.386.386,0,0,1,1-5.187H3.3V-7.5a.415.415,0,0,1,.182-.377A.73.73,0,0,1,3.887-7.995Z" transform="translate(-0.559 7.995)" fill="#ff6565"/>
    </g>
    <g id="plus" transform="translate(368 235)">
      <path id="패스_57" data-name="패스 57" d="M7.5,15A7.5,7.5,0,1,1,15,7.5,7.508,7.508,0,0,1,7.5,15ZM7.5.938A6.563,6.563,0,1,0,14.063,7.5,6.57,6.57,0,0,0,7.5.938Zm0,0" fill="#ec636b"/>
    </g>
  </g>
</svg>
