<svg xmlns="http://www.w3.org/2000/svg" width="13.981" height="11.698" viewBox="0 0 13.981 11.698">
  <g id="two-thin-arrows-forming-a-circle" transform="translate(0.5 -15.238)">
    <g id="그룹_181" data-name="그룹 181" transform="translate(0 15.738)">
      <path id="패스_125" data-name="패스 125" d="M10.015,85.9a4.995,4.995,0,0,1-8.526-3.527l1.018,1.02a.172.172,0,0,0,.244-.244L1.4,81.8.05,83.148a.172.172,0,0,0,0,.244.172.172,0,0,0,.243,0l.857-.858a5.335,5.335,0,0,0,9.107,3.608.172.172,0,0,0,0-.243A.17.17,0,0,0,10.015,85.9Z" transform="translate(0 -77.007)" fill="#e1e2e2" stroke="#e1e2e2" stroke-width="1"/>
      <path id="패스_126" data-name="패스 126" d="M47.109,20.052a.172.172,0,0,0-.243,0l-.857.858A5.336,5.336,0,0,0,36.9,17.3a.172.172,0,1,0,.243.243,5,5,0,0,1,8.527,3.527l-1.019-1.02a.172.172,0,0,0-.244.244l1.35,1.35,1.35-1.35A.172.172,0,0,0,47.109,20.052Z" transform="translate(-34.179 -15.738)" fill="#e1e2e2" stroke="#e1e2e2" stroke-width="1"/>
    </g>
  </g>
</svg>
