<svg xmlns="http://www.w3.org/2000/svg" width="62" height="68" viewBox="0 0 62 68">
  <g id="그룹_237" data-name="그룹 237" transform="translate(-227 -186)">
    <circle id="타원_72" data-name="타원 72" cx="31" cy="31" r="31" transform="translate(227 192)" fill="#d0eefe" opacity="0.29"/>
    <circle id="타원_74" data-name="타원 74" cx="31" cy="31" r="31" transform="translate(227 192)" fill="#d0eefe" opacity="0.29"/>
    <g id="공급업체" transform="translate(-1259 -657.094)">
      <g id="합치기_1" data-name="합치기 1" transform="translate(1502 867.053)" fill="none">
        <path d="M2,30.082a2,2,0,0,1-2-2V9.9A2,2,0,0,1,.857,8.262v0L.9,8.234Q.943,8.2.989,8.178L13.432.421a2.692,2.692,0,0,1,2.892,0L29.286,8.26l0,.045a2,2,0,0,1,.8,1.6V28.082a2,2,0,0,1-2,2Z" stroke="none"/>
        <path d="M 28.07999992370605 29.08160018920898 C 28.63129043579102 29.08160018920898 29.07980155944824 28.63309097290039 29.07980155944824 28.08180046081543 L 29.07980155944824 9.903599739074707 C 29.07980155944824 9.586660385131836 28.93413162231445 9.295200347900391 28.68015098571777 9.103960037231445 L 28.40024566650391 8.893185615539551 L 15.80583095550537 1.276900172233582 L 15.79594039916992 1.270920157432556 L 15.78620052337646 1.26472008228302 C 15.51422119140625 1.091540098190308 15.19998073577881 1.00000011920929 14.87745094299316 1.00000011920929 C 14.55492115020752 1.00000011920929 14.24068069458008 1.091540098190308 13.96870040893555 1.26472008228302 L 13.96467113494873 1.267290115356445 L 13.96062088012695 1.269810080528259 L 1.518090724945068 9.026360511779785 L 1.506680727005005 9.033470153808594 L 1.495080828666687 9.04026985168457 C 1.479740738868713 9.049269676208496 1.464730739593506 9.058650016784668 1.449930787086487 9.068429946899414 L 1.439692378044128 9.075191497802734 L 1.429300785064697 9.082440376281738 C 1.160490751266479 9.269960403442383 1.000000834465027 9.576940536499023 1.000000834465027 9.903599739074707 L 1.000000834465027 28.08180046081543 C 1.000000834465027 28.63309097290039 1.448510766029358 29.08160018920898 1.999800801277161 29.08160018920898 L 28.07999992370605 29.08160018920898 M 28.07999992370605 30.08160018920898 L 1.999800801277161 30.08160018920898 C 0.8955007791519165 30.08160018920898 7.797241323714843e-07 29.18610000610352 7.797241323714843e-07 28.08180046081543 L 7.797241323714843e-07 9.903599739074707 C 7.797241323714843e-07 9.224129676818848 0.3390807807445526 8.623689651489258 0.8571707606315613 8.262280464172363 C 0.8570407629013062 8.261560440063477 0.8569307923316956 8.260920524597168 0.8568007946014404 8.260200500488281 L 0.8985407948493958 8.234180450439453 C 0.9282107949256897 8.214570045471191 0.9583207964897156 8.19579029083252 0.9890707731246948 8.177750587463379 L 13.43160057067871 0.4212001264095306 C 13.87260055541992 0.1404001265764236 14.37502574920654 1.281738235547891e-07 14.87745094299316 1.281738235547891e-07 C 15.37987613677979 1.281738235547891e-07 15.88230037689209 0.1404001265764236 16.32330131530762 0.4212001264095306 L 29.28600120544434 8.260200500488281 C 29.28453063964844 8.275190353393555 29.28310012817383 8.290169715881348 29.28169059753418 8.305109977722168 C 29.76636123657227 8.670069694519043 30.07980155944824 9.250280380249023 30.07980155944824 9.903599739074707 L 30.07980155944824 28.08180046081543 C 30.07980155944824 29.18610000610352 29.18430137634277 30.08160018920898 28.07999992370605 30.08160018920898 Z" stroke="none" fill="#333"/>
      </g>
      <g id="사각형_6" data-name="사각형 6" transform="translate(1506.497 876.048)" fill="none" stroke="#333" stroke-width="1">
        <path d="M3,0H18.086a3,3,0,0,1,3,3V21.086a0,0,0,0,1,0,0H0a0,0,0,0,1,0,0V3A3,3,0,0,1,3,0Z" stroke="none"/>
        <path d="M3,.5H18.086a2.5,2.5,0,0,1,2.5,2.5V20.086a.5.5,0,0,1-.5.5H1a.5.5,0,0,1-.5-.5V3A2.5,2.5,0,0,1,3,.5Z" fill="none"/>
      </g>
      <line id="선_11" data-name="선 11" x2="20.695" transform="translate(1506.693 881.731)" fill="none" stroke="#333" stroke-width="1"/>
      <g id="그룹_29" data-name="그룹 29" transform="translate(1511.586 886.227)">
        <g id="사각형_7" data-name="사각형 7" transform="translate(0 0)" fill="none" stroke="#333" stroke-width="1">
          <path d="M2,0H3.817a2,2,0,0,1,2,2v8.907a0,0,0,0,1,0,0H0a0,0,0,0,1,0,0V2A2,2,0,0,1,2,0Z" stroke="none"/>
          <path d="M2,.5H3.817A1.5,1.5,0,0,1,5.317,2V9.907a.5.5,0,0,1-.5.5H1a.5.5,0,0,1-.5-.5V2A1.5,1.5,0,0,1,2,.5Z" fill="none"/>
        </g>
        <g id="사각형_8" data-name="사각형 8" transform="translate(10.55 5.09) rotate(90)" fill="none" stroke="#333" stroke-width="1">
          <path d="M2,0H5.817a0,0,0,0,1,0,0V10.55a0,0,0,0,1,0,0H0a0,0,0,0,1,0,0V2A2,2,0,0,1,2,0Z" stroke="none"/>
          <path d="M2,.5H4.817a.5.5,0,0,1,.5.5V9.55a.5.5,0,0,1-.5.5H1a.5.5,0,0,1-.5-.5V2A1.5,1.5,0,0,1,2,.5Z" fill="none"/>
        </g>
      </g>
      <line id="선_12" data-name="선 12" x2="4.331" transform="translate(1514.874 872.587)" fill="none" stroke="#333" stroke-linecap="round" stroke-width="1"/>
    </g>
    <g id="합치기_14" data-name="합치기 14" transform="translate(629 8667)" fill="#3d87e9">
      <path d="M -371.4994812011719 -8459.541015625 C -371.5873718261719 -8459.541015625 -371.8056640625 -8459.5654296875 -371.9344482421875 -8459.794921875 L -373.8758239746094 -8463.2451171875 L -374.0191955566406 -8463.5 L -374.3115844726563 -8463.5 L -378.998291015625 -8463.5 C -381.4806213378906 -8463.5 -383.5001525878906 -8465.5185546875 -383.5001525878906 -8468 L -383.5001525878906 -8476.0009765625 C -383.5001525878906 -8478.4814453125 -381.4806213378906 -8480.5 -378.998291015625 -8480.5 L -362.9987182617188 -8480.5 C -360.5175476074219 -8480.5 -358.4989929199219 -8478.4814453125 -358.4989929199219 -8476.0009765625 L -358.4989929199219 -8468 C -358.4989929199219 -8465.5185546875 -360.5175476074219 -8463.5 -362.9987182617188 -8463.5 L -368.685791015625 -8463.5 L -368.9781799316406 -8463.5 L -369.1215515136719 -8463.2451171875 L -371.0628356933594 -8459.794921875 C -371.1923522949219 -8459.5654296875 -371.411376953125 -8459.541015625 -371.4994812011719 -8459.541015625 Z" stroke="none"/>
      <path d="M -371.499267578125 -8460.041015625 C -371.4988403320313 -8460.041015625 -371.4984741210938 -8460.041015625 -371.4981079101563 -8460.041015625 L -369.5573120117188 -8463.490234375 L -369.2705688476563 -8464 L -368.685791015625 -8464 L -362.9987182617188 -8464 C -360.7932739257813 -8464 -358.9989929199219 -8465.7939453125 -358.9989929199219 -8468 L -358.9989929199219 -8476.0009765625 C -358.9989929199219 -8478.2060546875 -360.7932739257813 -8480 -362.9987182617188 -8480 L -378.998291015625 -8480 C -381.2049255371094 -8480 -383.0001525878906 -8478.2060546875 -383.0001525878906 -8476.0009765625 L -383.0001525878906 -8468 C -383.0001525878906 -8465.7939453125 -381.2049255371094 -8464 -378.998291015625 -8464 L -374.3115844726563 -8464 L -373.726806640625 -8464 L -373.4400634765625 -8463.490234375 L -371.499267578125 -8460.041015625 M -371.4994812011719 -8459.041015625 C -371.8397827148438 -8459.041015625 -372.1797790527344 -8459.2109375 -372.3703002929688 -8459.5498046875 L -374.3115844726563 -8463 L -378.998291015625 -8463 C -381.7610168457031 -8463 -384.0001525878906 -8465.2392578125 -384.0001525878906 -8468 L -384.0001525878906 -8476.0009765625 C -384.0001525878906 -8478.76171875 -381.7610168457031 -8481 -378.998291015625 -8481 L -362.9987182617188 -8481 C -360.2381286621094 -8481 -357.9989929199219 -8478.76171875 -357.9989929199219 -8476.0009765625 L -357.9989929199219 -8468 C -357.9989929199219 -8465.2392578125 -360.2381286621094 -8463 -362.9987182617188 -8463 L -368.685791015625 -8463 L -370.6270751953125 -8459.5498046875 C -370.8186340332031 -8459.2109375 -371.1592102050781 -8459.041015625 -371.4994812011719 -8459.041015625 Z" stroke="none" fill="#3d87e9"/>
    </g>
    <g id="관심" transform="translate(-108.834 -408.095)">
      <g id="스마일" transform="translate(361.834 598.427)">
        <path id="패스_77" data-name="패스 77" d="M100.661,113.48a5,5,0,1,1-5-5A5,5,0,0,1,100.661,113.48Z" transform="translate(-90.66 -108.48)" fill="none" stroke="#fff" stroke-width="0.7"/>
        <path id="패스_78" data-name="패스 78" d="M102.612,123.266a.574.574,0,1,1-.574-.574A.574.574,0,0,1,102.612,123.266Z" transform="translate(-98.529 -118.831)" fill="#fff"/>
        <path id="패스_79" data-name="패스 79" d="M114.7,123.266a.574.574,0,1,1-.573-.574A.573.573,0,0,1,114.7,123.266Z" transform="translate(-107.333 -118.831)" fill="#fff"/>
        <path id="패스_80" data-name="패스 80" d="M104.3,130.722a2.582,2.582,0,0,1-2.3-1.22.239.239,0,0,1,.421-.226,2.3,2.3,0,0,0,3.774-.035.239.239,0,0,1,.427.214A2.554,2.554,0,0,1,104.3,130.722Z" transform="translate(-99.17 -123.55)" fill="#fff"/>
      </g>
    </g>
  </g>
</svg>
