<svg xmlns="http://www.w3.org/2000/svg" width="62" height="68" viewBox="0 0 62 68">
  <g id="그룹_234" data-name="그룹 234" transform="translate(-25 -186)">
    <circle id="타원_70" data-name="타원 70" cx="31" cy="31" r="31" transform="translate(25 192)" fill="#d0eefe" opacity="0.29"/>
    <g id="합치기_12" data-name="합치기 12" transform="translate(427 8667)" fill="#3d87e9">
      <path d="M -371.4994812011719 -8459.541015625 C -371.5873718261719 -8459.541015625 -371.8056640625 -8459.5654296875 -371.9344482421875 -8459.794921875 L -373.8758239746094 -8463.2451171875 L -374.0191955566406 -8463.5 L -374.3115844726563 -8463.5 L -378.998291015625 -8463.5 C -381.4806213378906 -8463.5 -383.5001525878906 -8465.5185546875 -383.5001525878906 -8468 L -383.5001525878906 -8476.0009765625 C -383.5001525878906 -8478.4814453125 -381.4806213378906 -8480.5 -378.998291015625 -8480.5 L -362.9987182617188 -8480.5 C -360.5175476074219 -8480.5 -358.4989929199219 -8478.4814453125 -358.4989929199219 -8476.0009765625 L -358.4989929199219 -8468 C -358.4989929199219 -8465.5185546875 -360.5175476074219 -8463.5 -362.9987182617188 -8463.5 L -368.685791015625 -8463.5 L -368.9781799316406 -8463.5 L -369.1215515136719 -8463.2451171875 L -371.0628356933594 -8459.794921875 C -371.1923522949219 -8459.5654296875 -371.411376953125 -8459.541015625 -371.4994812011719 -8459.541015625 Z" stroke="none"/>
      <path d="M -371.499267578125 -8460.041015625 C -371.4988403320313 -8460.041015625 -371.4984741210938 -8460.041015625 -371.4981079101563 -8460.041015625 L -369.5573120117188 -8463.490234375 L -369.2705688476563 -8464 L -368.685791015625 -8464 L -362.9987182617188 -8464 C -360.7932739257813 -8464 -358.9989929199219 -8465.7939453125 -358.9989929199219 -8468 L -358.9989929199219 -8476.0009765625 C -358.9989929199219 -8478.2060546875 -360.7932739257813 -8480 -362.9987182617188 -8480 L -378.998291015625 -8480 C -381.2049255371094 -8480 -383.0001525878906 -8478.2060546875 -383.0001525878906 -8476.0009765625 L -383.0001525878906 -8468 C -383.0001525878906 -8465.7939453125 -381.2049255371094 -8464 -378.998291015625 -8464 L -374.3115844726563 -8464 L -373.726806640625 -8464 L -373.4400634765625 -8463.490234375 L -371.499267578125 -8460.041015625 M -371.4994812011719 -8459.041015625 C -371.8397827148438 -8459.041015625 -372.1797790527344 -8459.2109375 -372.3703002929688 -8459.5498046875 L -374.3115844726563 -8463 L -378.998291015625 -8463 C -381.7610168457031 -8463 -384.0001525878906 -8465.2392578125 -384.0001525878906 -8468 L -384.0001525878906 -8476.0009765625 C -384.0001525878906 -8478.76171875 -381.7610168457031 -8481 -378.998291015625 -8481 L -362.9987182617188 -8481 C -360.2381286621094 -8481 -357.9989929199219 -8478.76171875 -357.9989929199219 -8476.0009765625 L -357.9989929199219 -8468 C -357.9989929199219 -8465.2392578125 -360.2381286621094 -8463 -362.9987182617188 -8463 L -368.685791015625 -8463 L -370.6270751953125 -8459.5498046875 C -370.8186340332031 -8459.2109375 -371.1592102050781 -8459.041015625 -371.4994812011719 -8459.041015625 Z" stroke="none" fill="#3d87e9"/>
    </g>
    <g id="관심" transform="translate(-310.834 -408.095)">
      <g id="스마일" transform="translate(361.834 598.427)">
        <path id="패스_77" data-name="패스 77" d="M100.661,113.48a5,5,0,1,1-5-5A5,5,0,0,1,100.661,113.48Z" transform="translate(-90.66 -108.48)" fill="none" stroke="#fff" stroke-width="0.7"/>
        <path id="패스_116" data-name="패스 116" d="M2.857,4.83,4.374,6.81,7.785,3.524" fill="none" stroke="#fff" stroke-linecap="round" stroke-linejoin="round" stroke-width="1"/>
      </g>
    </g>
    <g id="재고관리" transform="translate(42.39 211.411)">
      <g id="사각형_84" data-name="사각형 84" transform="translate(-0.39 14.589)" fill="none" stroke="#333" stroke-width="0.9">
        <rect width="13" height="13" rx="1" stroke="none"/>
        <rect x="0.45" y="0.45" width="12.1" height="12.1" rx="0.55" fill="none"/>
      </g>
      <g id="사각형_85" data-name="사각형 85" transform="translate(14.61 14.589)" fill="none" stroke="#333" stroke-width="0.9">
        <rect width="13" height="13" rx="1" stroke="none"/>
        <rect x="0.45" y="0.45" width="12.1" height="12.1" rx="0.55" fill="none"/>
      </g>
      <line id="선_9" data-name="선 9" x2="6.677" transform="translate(2.948 18.14)" fill="none" stroke="#333" stroke-linecap="round" stroke-width="1"/>
      <line id="선_10" data-name="선 10" x2="6.677" transform="translate(17.638 18.14)" fill="none" stroke="#333" stroke-linecap="round" stroke-width="1"/>
      <g id="사각형_86" data-name="사각형 86" transform="translate(7.61 -0.411)" fill="none" stroke="#333" stroke-width="0.9">
        <rect width="13" height="13" rx="1" stroke="none"/>
        <rect x="0.45" y="0.45" width="12.1" height="12.1" rx="0.55" fill="none"/>
      </g>
      <line id="선_11" data-name="선 11" x2="6.677" transform="translate(10.961 3.781)" fill="none" stroke="#333" stroke-linecap="round" stroke-width="1"/>
    </g>
  </g>
</svg>
