<svg xmlns="http://www.w3.org/2000/svg" width="18" height="18" viewBox="0 0 18.046 18.387">
  <g id="settings_3_" data-name="settings (3)" transform="translate(0.806 0.75)">
    <g id="그룹_133" data-name="그룹 133" transform="translate(0 0)">
      <path id="패스_99" data-name="패스 99" d="M22.87,10.294,21.318,9.08a6.111,6.111,0,0,0,.037-.637,5.926,5.926,0,0,0-.037-.637l1.554-1.214a.761.761,0,0,0,.184-.97L21.441,2.829a.748.748,0,0,0-.934-.336l-1.832.735a6.279,6.279,0,0,0-1.1-.638L17.3.647A.747.747,0,0,0,16.551,0H13.315a.745.745,0,0,0-.744.642l-.279,1.95a6.473,6.473,0,0,0-1.1.638L9.357,2.492a.763.763,0,0,0-.927.33l-1.616,2.8A.757.757,0,0,0,7,6.593L8.549,7.807a5.567,5.567,0,0,0,0,1.274L7,10.3a.761.761,0,0,0-.183.97l1.614,2.793a.747.747,0,0,0,.934.336l1.832-.735a6.335,6.335,0,0,0,1.1.638l.279,1.942a.747.747,0,0,0,.746.649h3.237a.746.746,0,0,0,.745-.642l.279-1.949a6.5,6.5,0,0,0,1.1-.639l1.836.737a.756.756,0,0,0,.276.052.743.743,0,0,0,.651-.381l1.621-2.807A.76.76,0,0,0,22.87,10.294Zm-7.937.964a2.815,2.815,0,1,1,2.815-2.815A2.817,2.817,0,0,1,14.933,11.258Z" transform="translate(-6.71)" fill="none" stroke="#7b7b7b" stroke-width="1.5"/>
    </g>
  </g>
</svg>
