<svg xmlns="http://www.w3.org/2000/svg" width="62" height="68" viewBox="0 0 62 68">
  <g id="그룹_236" data-name="그룹 236" transform="translate(-126 -186)">
    <g id="그룹_235" data-name="그룹 235">
      <circle id="타원_71" data-name="타원 71" cx="31" cy="31" r="31" transform="translate(126 192)" fill="#d0eefe" opacity="0.29"/>
      <g id="합치기_13" data-name="합치기 13" transform="translate(528 8667)" fill="#3d87e9">
        <path d="M -371.4994812011719 -8459.541015625 C -371.5873718261719 -8459.541015625 -371.8056640625 -8459.5654296875 -371.9344482421875 -8459.794921875 L -373.8758239746094 -8463.2451171875 L -374.0191955566406 -8463.5 L -374.3115844726563 -8463.5 L -378.998291015625 -8463.5 C -381.4806213378906 -8463.5 -383.5001525878906 -8465.5185546875 -383.5001525878906 -8468 L -383.5001525878906 -8476.0009765625 C -383.5001525878906 -8478.4814453125 -381.4806213378906 -8480.5 -378.998291015625 -8480.5 L -362.9987182617188 -8480.5 C -360.5175476074219 -8480.5 -358.4989929199219 -8478.4814453125 -358.4989929199219 -8476.0009765625 L -358.4989929199219 -8468 C -358.4989929199219 -8465.5185546875 -360.5175476074219 -8463.5 -362.9987182617188 -8463.5 L -368.685791015625 -8463.5 L -368.9781799316406 -8463.5 L -369.1215515136719 -8463.2451171875 L -371.0628356933594 -8459.794921875 C -371.1923522949219 -8459.5654296875 -371.411376953125 -8459.541015625 -371.4994812011719 -8459.541015625 Z" stroke="none"/>
        <path d="M -371.499267578125 -8460.041015625 C -371.4988403320313 -8460.041015625 -371.4984741210938 -8460.041015625 -371.4981079101563 -8460.041015625 L -369.5573120117188 -8463.490234375 L -369.2705688476563 -8464 L -368.685791015625 -8464 L -362.9987182617188 -8464 C -360.7932739257813 -8464 -358.9989929199219 -8465.7939453125 -358.9989929199219 -8468 L -358.9989929199219 -8476.0009765625 C -358.9989929199219 -8478.2060546875 -360.7932739257813 -8480 -362.9987182617188 -8480 L -378.998291015625 -8480 C -381.2049255371094 -8480 -383.0001525878906 -8478.2060546875 -383.0001525878906 -8476.0009765625 L -383.0001525878906 -8468 C -383.0001525878906 -8465.7939453125 -381.2049255371094 -8464 -378.998291015625 -8464 L -374.3115844726563 -8464 L -373.726806640625 -8464 L -373.4400634765625 -8463.490234375 L -371.499267578125 -8460.041015625 M -371.4994812011719 -8459.041015625 C -371.8397827148438 -8459.041015625 -372.1797790527344 -8459.2109375 -372.3703002929688 -8459.5498046875 L -374.3115844726563 -8463 L -378.998291015625 -8463 C -381.7610168457031 -8463 -384.0001525878906 -8465.2392578125 -384.0001525878906 -8468 L -384.0001525878906 -8476.0009765625 C -384.0001525878906 -8478.76171875 -381.7610168457031 -8481 -378.998291015625 -8481 L -362.9987182617188 -8481 C -360.2381286621094 -8481 -357.9989929199219 -8478.76171875 -357.9989929199219 -8476.0009765625 L -357.9989929199219 -8468 C -357.9989929199219 -8465.2392578125 -360.2381286621094 -8463 -362.9987182617188 -8463 L -368.685791015625 -8463 L -370.6270751953125 -8459.5498046875 C -370.8186340332031 -8459.2109375 -371.1592102050781 -8459.041015625 -371.4994812011719 -8459.041015625 Z" stroke="none" fill="#3d87e9"/>
      </g>
      <g id="그룹_71" data-name="그룹 71" transform="translate(144.673 210.28)">
        <g id="타원_12" data-name="타원 12" transform="translate(1.441 6.348)" fill="none" stroke="#f1faff" stroke-width="1.5">
          <circle cx="10.831" cy="10.831" r="10.831" stroke="none"/>
          <circle cx="10.831" cy="10.831" r="10.081" fill="none"/>
        </g>
        <g id="그룹_16" data-name="그룹 16" transform="translate(-2 0.719)">
          <path id="패스_20" data-name="패스 20" d="M339.472,674.269a12.707,12.707,0,1,1,12.707-12.707A12.721,12.721,0,0,1,339.472,674.269Zm0-22.6a9.894,9.894,0,1,0,9.894,9.893A9.9,9.9,0,0,0,339.472,651.669Z" transform="translate(-326.766 -644.602)" fill="#333" stroke="#f1faff" stroke-width="1.6"/>
          <path id="패스_21" data-name="패스 21" d="M348.2,660.705a1.125,1.125,0,0,1-1.125-1.125v-3.556a1.125,1.125,0,0,1,1.2-1.123,9.788,9.788,0,0,1,4.585,1.491,1.125,1.125,0,1,1-1.2,1.9,7.5,7.5,0,0,0-2.329-.971v2.257A1.126,1.126,0,0,1,348.2,660.705Z" transform="translate(-335.65 -647.245)" fill="#333" stroke="#f1faff" stroke-width="1"/>
          <path id="패스_22" data-name="패스 22" d="M345.785,669.118a1.125,1.125,0,0,1-.713-2l8.264-6.761a1.125,1.125,0,0,1,1.425,1.741l-8.264,6.762A1.121,1.121,0,0,1,345.785,669.118Z" transform="translate(-334.592 -649.522)" fill="#333" stroke="#f1faff" stroke-width="1"/>
          <path id="패스_23" data-name="패스 23" d="M346.026,669.313a2.2,2.2,0,1,0,2.2-2.2A2.2,2.2,0,0,0,346.026,669.313Z" transform="translate(-335.19 -652.587)" fill="#333" stroke="#f1faff" stroke-width="0.5"/>
          <path id="패스_115" data-name="패스 115" d="M544.656,9697c.2-1.473,3.1-3.344,5.493-3.781-.8.915-1.314,5.056-1.314,5.056a23.18,23.18,0,0,1,13.1-3.821c-.637,1.393-.756,6.647-1.871,8.4s-2.03,2.548-3.662,2.747,2.428,1.353,3.662.756-.478,2.389-1.552,3.742a5.894,5.894,0,0,1-3.5,1.91" transform="translate(-528.989 -9693.219)" fill="none" stroke="#333" stroke-linejoin="round" stroke-width="1"/>
        </g>
      </g>
      <g id="그룹_141" data-name="그룹 141" transform="translate(0 -10.5)">
        <g id="사각형_437" data-name="사각형 437" transform="translate(152 200)" fill="none" stroke="#fff" stroke-width="0.7">
          <rect width="10" height="11" stroke="none"/>
          <rect x="0.35" y="0.35" width="9.3" height="10.3" fill="none"/>
        </g>
        <line id="선_81" data-name="선 81" x2="5" transform="translate(154.5 202.5)" fill="none" stroke="#fff" stroke-width="0.7"/>
        <line id="선_82" data-name="선 82" x2="5" transform="translate(154.5 205.5)" fill="none" stroke="#fff" stroke-width="0.7"/>
        <line id="선_83" data-name="선 83" x2="5" transform="translate(154.5 208.5)" fill="none" stroke="#fff" stroke-width="0.7"/>
      </g>
    </g>
  </g>
</svg>
