<svg xmlns="http://www.w3.org/2000/svg" width="10.7" height="10.7" viewBox="0 0 10.7 10.7">
  <g id="스마일" transform="translate(-90.31 -108.13)">
    <path id="패스_77" data-name="패스 77" d="M100.66,113.48a5,5,0,1,1-5-5A5,5,0,0,1,100.66,113.48Z" fill="none" stroke="#4b4b4b" stroke-width="0.7"/>
    <path id="패스_78" data-name="패스 78" d="M102.612,123.266a.574.574,0,1,1-.574-.574A.574.574,0,0,1,102.612,123.266Z" transform="translate(-7.87 -10.351)" fill="#4b4b4b"/>
    <path id="패스_79" data-name="패스 79" d="M114.7,123.266a.573.573,0,1,1-.573-.574A.573.573,0,0,1,114.7,123.266Z" transform="translate(-16.674 -10.351)" fill="#4b4b4b"/>
    <path id="패스_80" data-name="패스 80" d="M104.3,130.721a2.582,2.582,0,0,1-2.3-1.22.239.239,0,0,1,.421-.226,2.3,2.3,0,0,0,3.773-.035.239.239,0,0,1,.427.214A2.554,2.554,0,0,1,104.3,130.721Z" transform="translate(-8.51 -15.07)" fill="#4b4b4b"/>
  </g>
</svg>
