<svg xmlns="http://www.w3.org/2000/svg" width="10.286" height="12.169" viewBox="0 0 10.286 12.169">
  <path id="stopwatch" d="M9.1,3.74l.477-.477a.475.475,0,0,0-.671-.671l-.477.477A5.094,5.094,0,0,0,5.617,1.9V.949h.459a.475.475,0,0,0,0-.949H4.209a.475.475,0,0,0,0,.949h.459V1.9A5.143,5.143,0,1,0,9.1,3.74ZM5.143,11.219A4.193,4.193,0,1,1,9.336,7.026a4.2,4.2,0,0,1-4.193,4.193Zm2.2-6.393a.475.475,0,0,1,0,.671L5.478,7.362a.475.475,0,1,1-.671-.671L6.671,4.826A.475.475,0,0,1,7.343,4.826Zm0,0" transform="translate(0 0)" fill="#ec636b"/>
</svg>
