<svg xmlns="http://www.w3.org/2000/svg" width="221.809" height="68.182" viewBox="0 0 221.809 68.182">
  <g id="그룹_195" data-name="그룹 195" transform="translate(-96 -102.943)">
    <ellipse id="타원_47" data-name="타원 47" cx="15.327" cy="1.569" rx="15.327" ry="1.569" transform="translate(96 139.924)" fill="#ec636b"/>
    <path id="패스_82" data-name="패스 82" d="M780.664,98.547a15.327,15.327,0,1,0-19.853,14.645,1.857,1.857,0,0,1,.781.652l2.589,4.773a1.314,1.314,0,0,0,2.312,0l2.322-4.279.119-.217h0a2.537,2.537,0,0,1,.534-.662l.484-.287c.01,0,.01-.01.02-.01A15.334,15.334,0,0,0,780.664,98.547Z" transform="translate(-653.819 19.723)" fill="#ec636b"/>
    <path id="패스_92" data-name="패스 92" d="M8,0A8,8,0,1,1,0,8,8,8,0,0,1,8,0Z" transform="translate(103 110.039)" fill="#fff"/>
    <g id="그룹_72" data-name="그룹 72" transform="translate(131.534 104.525)">
      <path id="패스_42" data-name="패스 42" d="M786.17,99.341a1.008,1.008,0,0,1,.227-.771,1.222,1.222,0,0,1,.771-.2h32.5a1.163,1.163,0,0,1,.771.2.97.97,0,0,1,.227.771v3.389a1.009,1.009,0,0,1-.227.771,1.209,1.209,0,0,1-.771.188h-32.5a1.228,1.228,0,0,1-.771-.188.97.97,0,0,1-.227-.771Zm32.492,20.831c.049.306-.01.5-.188.573a3.168,3.168,0,0,1-.81.188c-1.769.178-3.488.326-5.158.425s-3.38.188-5.119.247-3.587.109-5.524.138-4.071.04-6.413.04a13.554,13.554,0,0,1-3.083-.306,5.374,5.374,0,0,1-2.154-1,4.181,4.181,0,0,1-1.255-1.808,8.262,8.262,0,0,1-.405-2.767V111.98a.949.949,0,0,1,.227-.731,1.227,1.227,0,0,1,.771-.188h21.987v-1.117H789.559c-.672,0-1-.376-1-1.117v-2.352a1.009,1.009,0,0,1,.227-.771,1.223,1.223,0,0,1,.771-.2h27.65a1.163,1.163,0,0,1,.771.2.971.971,0,0,1,.227.771v8.044a1.008,1.008,0,0,1-.227.771,1.209,1.209,0,0,1-.771.188H795.222v.613c0,.415.158.662.464.751a5.49,5.49,0,0,0,1.423.138q3.231,0,5.949-.04c1.808-.03,3.528-.059,5.139-.119s3.162-.119,4.645-.188,2.974-.178,4.486-.306a.982.982,0,0,1,.731.138,1.039,1.039,0,0,1,.267.593Zm-.346-25.416c.049.385-.01.632-.188.731a2.369,2.369,0,0,1-.81.227q-2.653.267-5.6.464c-1.967.128-3.923.237-5.89.326s-3.893.158-5.791.2-3.676.059-5.316.059a11.061,11.061,0,0,1-3.024-.346,3.773,3.773,0,0,1-1.868-1.156,4.573,4.573,0,0,1-.958-2.095,15.969,15.969,0,0,1-.267-3.172V86.179a1.008,1.008,0,0,1,.227-.771,1.209,1.209,0,0,1,.771-.188h5.4a1.228,1.228,0,0,1,.771.188.97.97,0,0,1,.227.771v2.115a3,3,0,0,0,.573,2.036,2.638,2.638,0,0,0,2.115.613c2.8-.049,5.791-.158,8.973-.306s6.285-.4,9.319-.731c.356-.049.6,0,.731.158a1.643,1.643,0,0,1,.267.81Z" transform="translate(-786.17 -84.825)" fill="#ec636b"/>
      <path id="패스_43" data-name="패스 43" d="M823.19,115.167a1.009,1.009,0,0,1,.227-.771,1.228,1.228,0,0,1,.771-.188h22.56a1.228,1.228,0,0,1,.771.188.97.97,0,0,1,.227.771v4.506a1.009,1.009,0,0,1-.227.771,1.222,1.222,0,0,1-.771.2h-22.56a1.223,1.223,0,0,1-.771-.2.971.971,0,0,1-.227-.771ZM834.969,84.82a11.837,11.837,0,0,1,5.257,1.057,9.5,9.5,0,0,1,3.449,2.806,11.348,11.348,0,0,1,1.887,4.022,18.964,18.964,0,0,1,.573,4.694,20.17,20.17,0,0,1-.553,4.714,11.086,11.086,0,0,1-1.868,4.042,9.416,9.416,0,0,1-3.449,2.806,13.8,13.8,0,0,1-10.593,0,9.5,9.5,0,0,1-3.449-2.806,11.086,11.086,0,0,1-1.868-4.042A19.66,19.66,0,0,1,823.8,97.4a18.52,18.52,0,0,1,.593-4.694,11.248,11.248,0,0,1,1.927-4.022,9.666,9.666,0,0,1,3.449-2.806A11.6,11.6,0,0,1,834.969,84.82Zm0,18.944a4.478,4.478,0,0,0,1.3-.208,2.817,2.817,0,0,0,1.294-.909,5.42,5.42,0,0,0,.978-1.947,14.579,14.579,0,0,0,0-6.66,5.314,5.314,0,0,0-.978-1.927,2.946,2.946,0,0,0-1.294-.889,4.26,4.26,0,0,0-1.3-.208,4.6,4.6,0,0,0-1.314.208,2.839,2.839,0,0,0-1.294.889,5.237,5.237,0,0,0-.978,1.927,14.584,14.584,0,0,0,0,6.66,5.51,5.51,0,0,0,.978,1.947,2.841,2.841,0,0,0,1.294.909A4.6,4.6,0,0,0,834.969,103.764ZM850.3,121.017a1.228,1.228,0,0,1-.771-.188.971.971,0,0,1-.227-.771V86.164a1.009,1.009,0,0,1,.227-.771,1.228,1.228,0,0,1,.771-.188h5.4a1.228,1.228,0,0,1,.771.188.971.971,0,0,1,.227.771v33.885a1.008,1.008,0,0,1-.227.771,1.227,1.227,0,0,1-.771.188h-5.4Z" transform="translate(-786.607 -84.82)" fill="#ec636b"/>
      <path id="패스_44" data-name="패스 44" d="M875.933,85.21a1.227,1.227,0,0,1,.771.188.97.97,0,0,1,.227.771v5.425a8.849,8.849,0,0,0,.267,2.174,5.156,5.156,0,0,0,1,1.966,6.958,6.958,0,0,0,1.967,1.621,10.438,10.438,0,0,0,3.162,1.1c.1.03.227.049.365.079a1.106,1.106,0,0,1,.405.168,1.059,1.059,0,0,1,.326.385,1.539,1.539,0,0,1,.138.712v4.279c0,.464-.119.741-.366.83a1.417,1.417,0,0,1-.632.1,23.208,23.208,0,0,1-2.757-.405,17.968,17.968,0,0,1-2.757-.81,13.829,13.829,0,0,1-2.579-1.324,10.733,10.733,0,0,1-2.194-1.927,12.008,12.008,0,0,1-2.214,1.927,13.368,13.368,0,0,1-2.559,1.324,17.977,17.977,0,0,1-2.757.81,23.213,23.213,0,0,1-2.757.405,1.274,1.274,0,0,1-.632-.1c-.247-.089-.366-.366-.366-.83V99.8a1.539,1.539,0,0,1,.138-.712,1.058,1.058,0,0,1,.326-.385.959.959,0,0,1,.405-.168c.138-.03.267-.049.366-.079a10.539,10.539,0,0,0,3.162-1.1,7.1,7.1,0,0,0,1.966-1.621,5.085,5.085,0,0,0,1-1.966,8.849,8.849,0,0,0,.267-2.174V86.169a1.008,1.008,0,0,1,.227-.771,1.228,1.228,0,0,1,.771-.188Zm-10.663,22.531a1.009,1.009,0,0,1,.227-.771,1.224,1.224,0,0,1,.771-.2H894.65a1.223,1.223,0,0,1,.771.2.971.971,0,0,1,.227.771v13.094a1.009,1.009,0,0,1-.227.771,1.228,1.228,0,0,1-.771.188h-5.4a1.228,1.228,0,0,1-.771-.188.97.97,0,0,1-.227-.771v-7.658H866.269a1.228,1.228,0,0,1-.771-.188.971.971,0,0,1-.227-.771ZM889.254,105a1.228,1.228,0,0,1-.771-.188.97.97,0,0,1-.227-.771V86.169a1.009,1.009,0,0,1,.227-.771,1.228,1.228,0,0,1,.771-.188h5.4a1.227,1.227,0,0,1,.771.188.971.971,0,0,1,.227.771v17.867a1.009,1.009,0,0,1-.227.771,1.227,1.227,0,0,1-.771.188h-5.4Z" transform="translate(-787.065 -84.825)" fill="#ec636b"/>
      <path id="패스_45" data-name="패스 45" d="M900.768,86.169a1.01,1.01,0,0,1,.227-.771,1.228,1.228,0,0,1,.771-.188h20.139a1.228,1.228,0,0,1,.771.188.971.971,0,0,1,.227.771v4.506a1.009,1.009,0,0,1-.227.771,1.209,1.209,0,0,1-.771.188h-6.394v13.983a8.852,8.852,0,0,0,.267,2.174,5.158,5.158,0,0,0,1,1.966,6.957,6.957,0,0,0,1.966,1.621,10.439,10.439,0,0,0,3.162,1.1c.1.03.227.049.366.079a.981.981,0,0,1,.405.178,1.059,1.059,0,0,1,.326.385,1.536,1.536,0,0,1,.138.711v4.279c0,.464-.119.741-.366.83a1.417,1.417,0,0,1-.632.1,23.211,23.211,0,0,1-2.757-.405,16.933,16.933,0,0,1-2.757-.81,13.828,13.828,0,0,1-2.579-1.324,10.738,10.738,0,0,1-2.194-1.927,12.008,12.008,0,0,1-2.214,1.927,13.369,13.369,0,0,1-2.559,1.324,17.979,17.979,0,0,1-2.757.81,23.2,23.2,0,0,1-2.757.405,1.274,1.274,0,0,1-.632-.1c-.247-.089-.366-.366-.366-.83v-4.279a1.539,1.539,0,0,1,.138-.711,1.058,1.058,0,0,1,.326-.385,1.131,1.131,0,0,1,.405-.178c.138-.03.267-.049.366-.079a10.537,10.537,0,0,0,3.162-1.1,7.1,7.1,0,0,0,1.966-1.621,5.088,5.088,0,0,0,1-1.966,8.858,8.858,0,0,0,.267-2.174V91.643h-6.433a1.228,1.228,0,0,1-.771-.188.971.971,0,0,1-.227-.771V86.169Zm37.5,17.56a1.009,1.009,0,0,1-.227.771,1.224,1.224,0,0,1-.771.2h-3.538v15.366a1.009,1.009,0,0,1-.227.771,1.209,1.209,0,0,1-.771.188h-5.4a1.229,1.229,0,0,1-.771-.188.971.971,0,0,1-.227-.771V86.169a1.009,1.009,0,0,1,.227-.771,1.21,1.21,0,0,1,.771-.188h5.4a1.228,1.228,0,0,1,.771.188.971.971,0,0,1,.227.771V98.294h3.538a1.223,1.223,0,0,1,.771.2.971.971,0,0,1,.227.771Z" transform="translate(-787.521 -84.825)" fill="#ec636b"/>
      <path id="패스_46" data-name="패스 46" d="M939.727,86.169a1.009,1.009,0,0,1,.227-.771,1.228,1.228,0,0,1,.771-.188H956.28a1.228,1.228,0,0,1,.771.188.971.971,0,0,1,.227.771v4.506a1.008,1.008,0,0,1-.227.771,1.209,1.209,0,0,1-.771.188h-4.121v13.983a12.1,12.1,0,0,0,.188,2.174,7.185,7.185,0,0,0,.652,1.966,5.464,5.464,0,0,0,1.255,1.621,5.344,5.344,0,0,0,1.986,1.1c.1.03.227.059.366.1a1.632,1.632,0,0,1,.405.178.916.916,0,0,1,.326.366,1.541,1.541,0,0,1,.138.711v4.279c0,.464-.119.741-.366.83a1.416,1.416,0,0,1-.632.1,17.717,17.717,0,0,1-1.947-.385,11.4,11.4,0,0,1-2.115-.771,12.356,12.356,0,0,1-2.075-1.255,9.885,9.885,0,0,1-1.868-1.828,9.6,9.6,0,0,1-1.868,1.828,12.761,12.761,0,0,1-2.075,1.255,11.479,11.479,0,0,1-2.095.771,16.591,16.591,0,0,1-1.927.385,1.276,1.276,0,0,1-.633-.1c-.247-.089-.366-.366-.366-.83v-4.279a1.421,1.421,0,0,1,.138-.711.916.916,0,0,1,.326-.366,1.631,1.631,0,0,1,.405-.178c.139-.04.267-.069.366-.1a5.426,5.426,0,0,0,1.987-1.1,5.819,5.819,0,0,0,1.255-1.621,7.083,7.083,0,0,0,.652-1.966,12.108,12.108,0,0,0,.188-2.174V91.643h-4.081a1.228,1.228,0,0,1-.771-.188.971.971,0,0,1-.227-.771V86.169Zm20.219,34.854a1.228,1.228,0,0,1-.771-.188.971.971,0,0,1-.227-.771V86.169a1.009,1.009,0,0,1,.227-.771,1.228,1.228,0,0,1,.771-.188h4.813a1.227,1.227,0,0,1,.771.188.97.97,0,0,1,.227.771V98.294h1.69V86.169a1.008,1.008,0,0,1,.227-.771,1.208,1.208,0,0,1,.771-.188h4.813a1.229,1.229,0,0,1,.771.188.971.971,0,0,1,.227.771v33.885a1.009,1.009,0,0,1-.227.771,1.209,1.209,0,0,1-.771.188h-4.813a1.227,1.227,0,0,1-.771-.188.97.97,0,0,1-.227-.771V104.687h-1.69v15.366a1.009,1.009,0,0,1-.227.771,1.208,1.208,0,0,1-.771.188h-4.812Z" transform="translate(-787.981 -84.825)" fill="#ec636b"/>
    </g>
    <path id="패스_129" data-name="패스 129" d="M8.91-6.015A4.79,4.79,0,0,1,5.535-10.4v-1.32H4.3v1.32a5.031,5.031,0,0,1-3.39,4.62l.63.975a5.808,5.808,0,0,0,3.39-3.435A5.656,5.656,0,0,0,8.3-5.04ZM2.835-2.565h7.77v3.69h1.23v-4.68h-9Zm7.77-9.765v8.085h1.23V-12.33Zm8.52,2.385H22.11v-1.02H14.835v1.02H17.91v1.71a7.033,7.033,0,0,1-3.54,5.79l.72.975a7.6,7.6,0,0,0,3.435-4.455A7.26,7.26,0,0,0,21.9-1.8l.7-.99a6.47,6.47,0,0,1-3.48-5.445Zm8.04,3.03h-2.22V-12.33h-1.23V1.11h1.23V-5.88h2.22Zm5.2-2.835h2.445v-1h-6.24v1h2.61V-8.7c0,2.73-1,5.025-2.925,6.105l.75.93a6.281,6.281,0,0,0,2.79-4.1,6.019,6.019,0,0,0,2.73,3.63l.72-.945c-1.905-.99-2.88-3.165-2.88-5.625Zm6.315-2.61v5.445h-1.77v-5.13H35.76V.45h1.155V-5.895h1.77v7H39.87V-12.36ZM49.53-9.75h2.445v-1h-6.24v1h2.61V-8.7c0,2.73-1,5.025-2.925,6.105l.75.93a6.281,6.281,0,0,0,2.79-4.1,6.019,6.019,0,0,0,2.73,3.63l.72-.945C50.5-4.065,49.53-6.24,49.53-8.7Zm6.315-2.61v5.445h-1.77v-5.13H52.92V.45h1.155V-5.895h1.77v7H57.03V-12.36ZM68.85-9.66a28.725,28.725,0,0,1-.51,6.09l1.23.135a30.33,30.33,0,0,0,.51-6.225V-11H60.645V-9.99H68.85ZM65.325-1.785V-6.6H64.1v4.815H59.37V-.78H71.535V-1.785ZM80.34-8.85v1.005H83V-4.32H84.24v-8.01H83v3.48Zm.75,3.06A4.632,4.632,0,0,1,77.82-9.9v-.465h2.955v-.99H73.59v.99h3V-9.9A4.96,4.96,0,0,1,73.2-5.415l.645.975a5.823,5.823,0,0,0,3.39-3.42,5.527,5.527,0,0,0,3.24,3.03ZM79.8.15c-2.025,0-3.255-.57-3.255-1.545s1.23-1.56,3.255-1.56,3.255.585,3.255,1.56S81.825.15,79.8.15Zm0-4.05c-2.76,0-4.485.915-4.485,2.505s1.725,2.5,4.485,2.5,4.47-.915,4.47-2.5S82.56-3.9,79.8-3.9Zm9.81-4.08h6.87v2.475H89.61Zm4.05,6.36v-2.9h4.02v-6.87h-1.2v2.4H89.61v-2.4H88.4v6.87h4.02v2.9h-5.46v1H99.15v-1Zm16.5-8.9a12.17,12.17,0,0,1-.36,3.42l1.2.135a12.477,12.477,0,0,0,.375-3.555v-1.14H102.21v.99h7.95ZM106.785.135c-2.1,0-3.45-.57-3.45-1.5,0-.96,1.35-1.53,3.45-1.53,2.115,0,3.465.57,3.465,1.53C110.25-.435,108.9.135,106.785.135Zm0-3.975c-2.865,0-4.68.915-4.68,2.475,0,1.53,1.815,2.46,4.68,2.46s4.7-.93,4.7-2.46C111.48-2.925,109.65-3.84,106.785-3.84Zm.2-2.235v-2.58h-1.23v2.58h-4.965v1H112.89v-1Zm13.635-4.74c2.055,0,3.45.75,3.45,1.935s-1.395,1.95-3.45,1.95S117.18-7.7,117.18-8.88,118.575-10.815,120.615-10.815Zm0,4.875c2.805,0,4.71-1.14,4.71-2.94s-1.9-2.925-4.71-2.925S115.92-10.68,115.92-8.88,117.825-5.94,120.615-5.94Zm6.12,1.26h-12.18v1.005h3.135V1.11h1.245V-3.675h3.375V1.11h1.245V-3.675h3.18Zm12.72-3.735H136.11V-10.98h3.345Zm-4.575,0h-2v.945h9.78v-.945h-1.98V-10.98h2.025v-.945h-9.87v.945h2.04Zm-.465,7.185h7.9V-4.185h-9.15v.915h7.935v1.155h-7.89V.96h9.51V.03h-8.31ZM131.7-6.345v.975h12.18v-.975ZM153.885-7.83h1.8v4.65h1.185v-9.15h-1.185v3.51h-1.8v-3.27h-1.17v7.74h1.17Zm-1.95,1.89a22.739,22.739,0,0,1-4.62.405v-2h3.84v-3.75H146.1v.99h3.87v1.83h-3.84v3.915h.885a23.711,23.711,0,0,0,5.055-.42ZM153-3.8h-1.245v.345c0,1.74-2.19,3.18-4.545,3.555l.495.96a6.619,6.619,0,0,0,4.68-2.865,6.619,6.619,0,0,0,4.68,2.865l.495-.96C155.19-.27,153-1.71,153-3.45Zm9.015,1.47h6.78V-.06h-6.78ZM160.815.93H170V-3.3h-9.18Zm2.9-11.85h3.345V-8.1H163.71Zm2.295,5.355V-7.11h4.26V-8.1h-1.98v-2.82h2.04v-.99h-9.87v.99h2.025V-8.1H160.5v.99h4.275v1.545h-5.46v.99H171.48v-.99Z" transform="translate(120.191 170)" fill="#ec636b"/>
  </g>
</svg>
