<svg xmlns="http://www.w3.org/2000/svg" width="221.818" height="68" viewBox="0 0 221.818 68">
  <g id="그룹_231" data-name="그룹 231" transform="translate(153 2393)">
    <g id="그룹_195" data-name="그룹 195" transform="translate(-249 -2495.944)">
      <ellipse id="타원_47" data-name="타원 47" cx="15.327" cy="1.569" rx="15.327" ry="1.569" transform="translate(96 139.924)" fill="#ec636b"/>
      <path id="패스_82" data-name="패스 82" d="M780.664,98.547a15.327,15.327,0,1,0-19.853,14.645,1.857,1.857,0,0,1,.781.652l2.589,4.773a1.314,1.314,0,0,0,2.312,0l2.322-4.279.119-.217h0a2.537,2.537,0,0,1,.534-.662l.484-.287c.01,0,.01-.01.02-.01a15.334,15.334,0,0,0,10.692-14.615Z" transform="translate(-653.819 19.723)" fill="#ec636b"/>
      <path id="패스_92" data-name="패스 92" d="M8,0A8,8,0,1,1,0,8,8,8,0,0,1,8,0Z" transform="translate(103 110.039)" fill="#fff"/>
      <g id="그룹_72" data-name="그룹 72" transform="translate(131.534 104.525)">
        <path id="패스_42" data-name="패스 42" d="M786.17,99.341a1.008,1.008,0,0,1,.227-.771,1.222,1.222,0,0,1,.771-.2h32.5a1.163,1.163,0,0,1,.771.2.97.97,0,0,1,.227.771v3.389a1.009,1.009,0,0,1-.227.771,1.209,1.209,0,0,1-.771.188h-32.5a1.228,1.228,0,0,1-.771-.188.97.97,0,0,1-.227-.771Zm32.492,20.831c.049.306-.01.5-.188.573a3.169,3.169,0,0,1-.81.188c-1.769.178-3.488.326-5.158.425s-3.38.188-5.119.247-3.587.109-5.524.138-4.071.04-6.413.04a13.554,13.554,0,0,1-3.083-.306,5.374,5.374,0,0,1-2.154-1,4.181,4.181,0,0,1-1.255-1.808,8.262,8.262,0,0,1-.405-2.767V111.98a.949.949,0,0,1,.227-.731,1.227,1.227,0,0,1,.771-.188h21.987v-1.117H789.559c-.672,0-1-.376-1-1.117v-2.352a1.009,1.009,0,0,1,.227-.771,1.223,1.223,0,0,1,.771-.2h27.65a1.163,1.163,0,0,1,.771.2.971.971,0,0,1,.227.771v8.044a1.008,1.008,0,0,1-.227.771,1.209,1.209,0,0,1-.771.188H795.222v.613c0,.415.158.662.464.751a5.49,5.49,0,0,0,1.423.138q3.231,0,5.949-.04c1.808-.03,3.528-.059,5.139-.119s3.162-.119,4.645-.188,2.974-.178,4.486-.306a.982.982,0,0,1,.731.138,1.039,1.039,0,0,1,.267.593Zm-.346-25.416c.049.385-.01.632-.188.731a2.369,2.369,0,0,1-.81.227q-2.653.267-5.6.464c-1.967.128-3.923.237-5.89.326s-3.893.158-5.791.2-3.676.059-5.316.059a11.061,11.061,0,0,1-3.024-.346,3.773,3.773,0,0,1-1.868-1.156,4.574,4.574,0,0,1-.958-2.1,15.968,15.968,0,0,1-.267-3.172V86.179a1.008,1.008,0,0,1,.227-.771,1.209,1.209,0,0,1,.771-.188H795a1.228,1.228,0,0,1,.771.188.97.97,0,0,1,.227.771v2.115a3,3,0,0,0,.573,2.036,2.638,2.638,0,0,0,2.115.613c2.8-.049,5.791-.158,8.973-.306s6.285-.4,9.319-.731c.356-.049.6,0,.731.158a1.644,1.644,0,0,1,.267.81Z" transform="translate(-786.17 -84.825)" fill="#ec636b"/>
        <path id="패스_43" data-name="패스 43" d="M823.19,115.167a1.009,1.009,0,0,1,.227-.771,1.228,1.228,0,0,1,.771-.188h22.56a1.228,1.228,0,0,1,.771.188.97.97,0,0,1,.227.771v4.506a1.009,1.009,0,0,1-.227.771,1.222,1.222,0,0,1-.771.2h-22.56a1.223,1.223,0,0,1-.771-.2.971.971,0,0,1-.227-.771ZM834.969,84.82a11.837,11.837,0,0,1,5.257,1.057,9.5,9.5,0,0,1,3.449,2.806,11.347,11.347,0,0,1,1.887,4.022,18.962,18.962,0,0,1,.573,4.694,20.174,20.174,0,0,1-.553,4.714,11.086,11.086,0,0,1-1.868,4.042,9.416,9.416,0,0,1-3.449,2.806,13.8,13.8,0,0,1-10.593,0,9.5,9.5,0,0,1-3.449-2.806,11.086,11.086,0,0,1-1.868-4.042A19.662,19.662,0,0,1,823.8,97.4a18.523,18.523,0,0,1,.593-4.694,11.246,11.246,0,0,1,1.927-4.022,9.666,9.666,0,0,1,3.449-2.806,11.6,11.6,0,0,1,5.2-1.058Zm0,18.944a4.478,4.478,0,0,0,1.3-.208,2.817,2.817,0,0,0,1.294-.909,5.419,5.419,0,0,0,.978-1.947,14.578,14.578,0,0,0,0-6.66,5.313,5.313,0,0,0-.978-1.927,2.946,2.946,0,0,0-1.294-.889,4.26,4.26,0,0,0-1.3-.208,4.6,4.6,0,0,0-1.314.208,2.839,2.839,0,0,0-1.294.889,5.237,5.237,0,0,0-.978,1.927,14.584,14.584,0,0,0,0,6.66,5.512,5.512,0,0,0,.978,1.947,2.841,2.841,0,0,0,1.294.909,4.6,4.6,0,0,0,1.314.208ZM850.3,121.017a1.228,1.228,0,0,1-.771-.188.971.971,0,0,1-.227-.771V86.164a1.009,1.009,0,0,1,.227-.771,1.228,1.228,0,0,1,.771-.188h5.4a1.228,1.228,0,0,1,.771.188.971.971,0,0,1,.227.771v33.885a1.008,1.008,0,0,1-.227.771,1.227,1.227,0,0,1-.771.188h-5.4Z" transform="translate(-786.607 -84.82)" fill="#ec636b"/>
        <path id="패스_44" data-name="패스 44" d="M875.933,85.21a1.227,1.227,0,0,1,.771.188.97.97,0,0,1,.227.771v5.425a8.85,8.85,0,0,0,.267,2.174,5.156,5.156,0,0,0,1,1.966,6.957,6.957,0,0,0,1.967,1.621,10.438,10.438,0,0,0,3.162,1.1c.1.03.227.049.365.079a1.106,1.106,0,0,1,.405.168,1.059,1.059,0,0,1,.326.385,1.54,1.54,0,0,1,.138.712v4.279c0,.464-.119.741-.366.83a1.418,1.418,0,0,1-.632.1,23.207,23.207,0,0,1-2.757-.405,17.967,17.967,0,0,1-2.757-.81,13.828,13.828,0,0,1-2.579-1.324,10.734,10.734,0,0,1-2.194-1.927,12.006,12.006,0,0,1-2.214,1.927,13.371,13.371,0,0,1-2.559,1.324,17.98,17.98,0,0,1-2.757.81,23.216,23.216,0,0,1-2.757.4,1.274,1.274,0,0,1-.632-.1c-.247-.089-.366-.366-.366-.83V99.8a1.54,1.54,0,0,1,.138-.712,1.058,1.058,0,0,1,.326-.385.959.959,0,0,1,.405-.168c.138-.03.267-.049.366-.079a10.538,10.538,0,0,0,3.162-1.1,7.1,7.1,0,0,0,1.966-1.621,5.084,5.084,0,0,0,1-1.966,8.85,8.85,0,0,0,.267-2.174V86.169a1.008,1.008,0,0,1,.227-.771,1.228,1.228,0,0,1,.771-.188ZM865.27,107.741a1.009,1.009,0,0,1,.227-.771,1.224,1.224,0,0,1,.771-.2H894.65a1.223,1.223,0,0,1,.771.2.971.971,0,0,1,.227.771v13.094a1.009,1.009,0,0,1-.227.771,1.227,1.227,0,0,1-.771.188h-5.4a1.228,1.228,0,0,1-.771-.188.97.97,0,0,1-.227-.771v-7.658H866.269a1.228,1.228,0,0,1-.771-.188.971.971,0,0,1-.227-.771ZM889.254,105a1.228,1.228,0,0,1-.771-.188.97.97,0,0,1-.227-.771V86.169a1.009,1.009,0,0,1,.227-.771,1.228,1.228,0,0,1,.771-.188h5.4a1.227,1.227,0,0,1,.771.188.971.971,0,0,1,.227.771v17.867a1.009,1.009,0,0,1-.227.771,1.227,1.227,0,0,1-.771.188h-5.4Z" transform="translate(-787.065 -84.825)" fill="#ec636b"/>
        <path id="패스_45" data-name="패스 45" d="M900.768,86.169A1.01,1.01,0,0,1,901,85.4a1.228,1.228,0,0,1,.771-.188H921.9a1.228,1.228,0,0,1,.771.188.971.971,0,0,1,.227.771v4.506a1.009,1.009,0,0,1-.227.771,1.209,1.209,0,0,1-.771.188h-6.394v13.983a8.853,8.853,0,0,0,.267,2.174,5.158,5.158,0,0,0,1,1.966,6.957,6.957,0,0,0,1.966,1.621,10.44,10.44,0,0,0,3.162,1.1c.1.03.227.049.366.079a.981.981,0,0,1,.4.178,1.059,1.059,0,0,1,.326.385,1.535,1.535,0,0,1,.138.711v4.279c0,.464-.119.741-.366.83a1.417,1.417,0,0,1-.632.1,23.212,23.212,0,0,1-2.757-.405,16.932,16.932,0,0,1-2.757-.81,13.827,13.827,0,0,1-2.579-1.324,10.737,10.737,0,0,1-2.194-1.927,12.011,12.011,0,0,1-2.214,1.927,13.364,13.364,0,0,1-2.559,1.324,17.982,17.982,0,0,1-2.757.81,23.205,23.205,0,0,1-2.757.405,1.274,1.274,0,0,1-.632-.1c-.247-.089-.366-.366-.366-.83v-4.279a1.541,1.541,0,0,1,.138-.711,1.059,1.059,0,0,1,.326-.385,1.131,1.131,0,0,1,.405-.178c.138-.03.267-.049.366-.079a10.538,10.538,0,0,0,3.162-1.1,7.1,7.1,0,0,0,1.966-1.621,5.09,5.09,0,0,0,1-1.966,8.858,8.858,0,0,0,.267-2.174V91.643h-6.433a1.228,1.228,0,0,1-.771-.188.971.971,0,0,1-.227-.771V86.169Zm37.5,17.56a1.009,1.009,0,0,1-.227.771,1.224,1.224,0,0,1-.771.2h-3.538v15.366a1.009,1.009,0,0,1-.227.771,1.209,1.209,0,0,1-.771.188h-5.4a1.229,1.229,0,0,1-.771-.188.971.971,0,0,1-.227-.771v-33.9a1.009,1.009,0,0,1,.227-.771,1.21,1.21,0,0,1,.771-.188h5.4a1.228,1.228,0,0,1,.771.188.971.971,0,0,1,.227.771V98.294h3.538a1.223,1.223,0,0,1,.771.2.971.971,0,0,1,.227.771Z" transform="translate(-787.521 -84.825)" fill="#ec636b"/>
        <path id="패스_46" data-name="패스 46" d="M939.727,86.169a1.009,1.009,0,0,1,.227-.771,1.228,1.228,0,0,1,.771-.188H956.28a1.228,1.228,0,0,1,.771.188.971.971,0,0,1,.227.771v4.506a1.008,1.008,0,0,1-.227.771,1.209,1.209,0,0,1-.771.188h-4.121v13.983a12.092,12.092,0,0,0,.188,2.174,7.182,7.182,0,0,0,.652,1.966,5.463,5.463,0,0,0,1.255,1.621,5.344,5.344,0,0,0,1.986,1.1c.1.03.227.059.366.1a1.633,1.633,0,0,1,.405.178.915.915,0,0,1,.326.366,1.542,1.542,0,0,1,.138.711v4.279c0,.464-.119.741-.366.83a1.417,1.417,0,0,1-.632.1,17.716,17.716,0,0,1-1.947-.385,11.4,11.4,0,0,1-2.115-.771,12.351,12.351,0,0,1-2.075-1.255,9.886,9.886,0,0,1-1.868-1.828,9.6,9.6,0,0,1-1.868,1.828,12.76,12.76,0,0,1-2.075,1.255,11.479,11.479,0,0,1-2.1.771,16.592,16.592,0,0,1-1.927.385,1.276,1.276,0,0,1-.633-.1c-.247-.089-.366-.366-.366-.83v-4.279a1.422,1.422,0,0,1,.138-.711.916.916,0,0,1,.326-.366,1.634,1.634,0,0,1,.405-.178c.139-.04.267-.069.366-.1a5.426,5.426,0,0,0,1.987-1.1,5.817,5.817,0,0,0,1.255-1.621,7.085,7.085,0,0,0,.652-1.966,12.108,12.108,0,0,0,.188-2.174V91.643h-4.081a1.228,1.228,0,0,1-.771-.188.971.971,0,0,1-.227-.771V86.169Zm20.219,34.854a1.228,1.228,0,0,1-.771-.188.971.971,0,0,1-.227-.771V86.169a1.009,1.009,0,0,1,.227-.771,1.228,1.228,0,0,1,.771-.188h4.813a1.227,1.227,0,0,1,.771.188.97.97,0,0,1,.227.771V98.294h1.69V86.169a1.008,1.008,0,0,1,.227-.771,1.208,1.208,0,0,1,.771-.188h4.813a1.229,1.229,0,0,1,.771.188.971.971,0,0,1,.227.771v33.885a1.009,1.009,0,0,1-.227.771,1.209,1.209,0,0,1-.771.188h-4.813a1.227,1.227,0,0,1-.771-.188.97.97,0,0,1-.227-.771V104.687h-1.69v15.366a1.009,1.009,0,0,1-.227.771,1.208,1.208,0,0,1-.771.188h-4.812Z" transform="translate(-787.981 -84.825)" fill="#ec636b"/>
      </g>
    </g>
    <text id="식품_식자재_거래관리_플랫폼" data-name="식품/식자재 거래관리 플랫폼" transform="translate(-125 -2329)" fill="#ec636b" font-size="14" font-family="NanumSquareB, NanumSquare"><tspan x="0" y="0">식품/식자재 거래관리 플랫폼</tspan></text>
  </g>
</svg>
