<svg xmlns="http://www.w3.org/2000/svg" width="39.813" height="46.904" viewBox="0 0 39.813 46.904">
  <g id="user-profile" transform="translate(1 1)">
    <path id="패스_67" data-name="패스 67" d="M39.372,30.088h-4.55A14.157,14.157,0,0,0,20.464,16.17,14.156,14.156,0,0,0,6.109,30.088H1.559A18.712,18.712,0,0,1,20.467,11.62,18.711,18.711,0,0,1,39.372,30.088Z" transform="translate(-1.559 14.815)" fill="#e6ebee" stroke="#f8f8f8" stroke-width="2"/>
    <path id="패스_68" data-name="패스 68" d="M16.862,24.957A12.478,12.478,0,1,1,29.343,12.478,12.495,12.495,0,0,1,16.862,24.957Zm0-20.407a7.928,7.928,0,1,0,7.931,7.928A7.936,7.936,0,0,0,16.862,4.55Z" transform="translate(2.045 0)" fill="#e6ebee" stroke="#f8f8f8" stroke-width="2"/>
  </g>
</svg>
