<svg xmlns="http://www.w3.org/2000/svg" width="51.414" height="38.837" viewBox="0 0 51.414 38.837">
  <g id="오늘의행사" transform="translate(-99.209 -686.901)">
    <path id="패스_147" data-name="패스 147" d="M10.109-.209a.158.158,0,0,1-.055.11.158.158,0,0,1-.11.055H.363A.135.135,0,0,1,.253-.1a.176.176,0,0,1-.044-.11V-.924q0-.176.154-.176H4.521V-3.135A4.779,4.779,0,0,1,3.328-3.4a3.362,3.362,0,0,1-.941-.523,2.326,2.326,0,0,1-.616-.743,2.009,2.009,0,0,1-.22-.941,1.983,1.983,0,0,1,.275-1.034,2.513,2.513,0,0,1,.759-.792,3.711,3.711,0,0,1,1.144-.506,5.536,5.536,0,0,1,1.43-.176,5.536,5.536,0,0,1,1.43.176,3.711,3.711,0,0,1,1.144.506,2.455,2.455,0,0,1,.754.792A2.014,2.014,0,0,1,8.756-5.61a2.009,2.009,0,0,1-.22.941,2.326,2.326,0,0,1-.616.743,3.362,3.362,0,0,1-.94.523,4.779,4.779,0,0,1-1.194.269V-1.1H9.944a.158.158,0,0,1,.11.055.168.168,0,0,1,.055.121ZM5.159-7.073a3.616,3.616,0,0,0-.88.1,2.59,2.59,0,0,0-.732.3,1.646,1.646,0,0,0-.5.462,1.028,1.028,0,0,0-.187.6,1.053,1.053,0,0,0,.187.605,1.617,1.617,0,0,0,.5.467,2.59,2.59,0,0,0,.732.3,3.616,3.616,0,0,0,.88.1,3.616,3.616,0,0,0,.88-.1,2.59,2.59,0,0,0,.731-.3,1.557,1.557,0,0,0,.5-.467,1.076,1.076,0,0,0,.181-.605,1.05,1.05,0,0,0-.181-.6,1.583,1.583,0,0,0-.5-.462,2.59,2.59,0,0,0-.731-.3A3.616,3.616,0,0,0,5.159-7.073ZM19.074-5.445a.111.111,0,0,1-.049.1.185.185,0,0,1-.1.033h-5.9a.934.934,0,0,1-.677-.181.881.881,0,0,1-.17-.61V-8.569a.147.147,0,0,1,.05-.1.147.147,0,0,1,.1-.05h.946a.177.177,0,0,1,.121.05.142.142,0,0,1,.055.1v2.024A.175.175,0,0,0,13.5-6.4a.292.292,0,0,0,.165.033H18.92a.168.168,0,0,1,.1.039.115.115,0,0,1,.049.093Zm1.364,1.76a.158.158,0,0,1-.055.11.158.158,0,0,1-.11.055H10.7a.141.141,0,0,1-.11-.049.168.168,0,0,1-.044-.115v-.7q0-.165.154-.165h9.57a.166.166,0,0,1,.11.049.151.151,0,0,1,.055.115ZM19.173,1.452a.142.142,0,0,1-.055.1.158.158,0,0,1-.1.05H12.87a.83.83,0,0,1-.583-.154.7.7,0,0,1-.154-.506V-.407a.735.735,0,0,1,.148-.512.788.788,0,0,1,.578-.16h4.686a.222.222,0,0,0,.11-.016q.022-.016.022-.115v-.4a.26.26,0,0,0-.022-.143.2.2,0,0,0-.121-.022H12.265a.168.168,0,0,1-.1-.038.115.115,0,0,1-.05-.094V-2.64a.147.147,0,0,1,.05-.1.147.147,0,0,1,.1-.049h5.9a.9.9,0,0,1,.6.143.708.708,0,0,1,.149.517V-.792a.685.685,0,0,1-.149.517.952.952,0,0,1-.6.132H13.508q-.088,0-.11.027A.2.2,0,0,0,13.376,0V.451q0,.1.022.116a.257.257,0,0,0,.121.016h5.489a.191.191,0,0,1,.11.038.132.132,0,0,1,.055.115ZM29.755,1.6q0,.143-.154.143h-.968a.168.168,0,0,1-.1-.038.125.125,0,0,1-.049-.1V-8.558a.13.13,0,0,1,.049-.1.156.156,0,0,1,.1-.044H29.6q.154,0,.154.143Zm-5.39-8.613a1.4,1.4,0,0,0-1.034.407,1.486,1.486,0,0,0-.407,1.1A1.5,1.5,0,0,0,23.331-4.4a1.4,1.4,0,0,0,1.034.407A1.429,1.429,0,0,0,25.421-4.4a1.5,1.5,0,0,0,.407-1.111,1.486,1.486,0,0,0-.407-1.1A1.429,1.429,0,0,0,24.365-7.018Zm0-1.045a3,3,0,0,1,1.051.182,2.544,2.544,0,0,1,.853.517,2.416,2.416,0,0,1,.572.809,2.557,2.557,0,0,1,.209,1.045,2.547,2.547,0,0,1-.209,1.051,2.314,2.314,0,0,1-.572.792,2.567,2.567,0,0,1-.853.5,3.115,3.115,0,0,1-1.062.176,3.035,3.035,0,0,1-1.045-.176,2.516,2.516,0,0,1-.841-.5,2.349,2.349,0,0,1-.566-.792,2.547,2.547,0,0,1-.209-1.051A2.557,2.557,0,0,1,21.9-6.556a2.455,2.455,0,0,1,.566-.809,2.483,2.483,0,0,1,.847-.517A3,3,0,0,1,24.365-8.063ZM21.043-1.408a.168.168,0,0,1,.044-.115.154.154,0,0,1,.121-.049q.781.022,1.65,0t1.733-.066q.863-.044,1.678-.115t1.5-.16a.3.3,0,0,1,.127.006.108.108,0,0,1,.083.1l.066.715A.156.156,0,0,1,28-.952a.206.206,0,0,1-.1.061q-.616.088-1.441.165t-1.733.132q-.907.055-1.82.083T21.208-.5a.154.154,0,0,1-.121-.05.168.168,0,0,1-.044-.115Zm18.271-7.15q0-.143.154-.143h.946a.126.126,0,0,1,.143.143v6.193a.126.126,0,0,1-.143.143h-.957a.126.126,0,0,1-.143-.143V-4.73h-.946v2.024q0,.154-.143.154h-.913a.136.136,0,0,1-.154-.154V-8.382q0-.143.154-.143h.913a.126.126,0,0,1,.143.143v2.6h.946Zm.033,8.415a.515.515,0,0,0-.171-.368,1.456,1.456,0,0,0-.473-.3,3.339,3.339,0,0,0-.715-.2,5.795,5.795,0,0,0-1.815,0,3.226,3.226,0,0,0-.709.2,1.466,1.466,0,0,0-.467.3.515.515,0,0,0-.171.368A.461.461,0,0,0,35,.192a1.517,1.517,0,0,0,.467.281,3.458,3.458,0,0,0,.709.193,5.329,5.329,0,0,0,.908.071,5.329,5.329,0,0,0,.908-.071A3.584,3.584,0,0,0,38.7.473a1.507,1.507,0,0,0,.473-.281A.461.461,0,0,0,39.347-.143Zm1.3-.033a1.238,1.238,0,0,1-.275.781,2.232,2.232,0,0,1-.759.6,4.418,4.418,0,0,1-1.133.38,7.007,7.007,0,0,1-1.4.132,7.007,7.007,0,0,1-1.4-.132,4.418,4.418,0,0,1-1.133-.38,2.232,2.232,0,0,1-.759-.6,1.238,1.238,0,0,1-.275-.781,1.216,1.216,0,0,1,.275-.776,2.266,2.266,0,0,1,.759-.594,4.418,4.418,0,0,1,1.133-.38,7.458,7.458,0,0,1,2.794,0,4.418,4.418,0,0,1,1.133.38,2.266,2.266,0,0,1,.759.594A1.216,1.216,0,0,1,40.645-.176ZM36.619-6.292a.158.158,0,0,1-.049.115.158.158,0,0,1-.115.049H31.735a.158.158,0,0,1-.11-.055A.168.168,0,0,1,31.57-6.3v-.605a.153.153,0,0,1,.061-.11.177.177,0,0,1,.115-.055h4.708a.158.158,0,0,1,.115.049.158.158,0,0,1,.049.116Zm-1.1-1.419a.191.191,0,0,1-.049.132.163.163,0,0,1-.126.055H32.967a.189.189,0,0,1-.1-.044.141.141,0,0,1-.06-.121v-.627a.141.141,0,0,1,.06-.121.189.189,0,0,1,.1-.044h2.376a.168.168,0,0,1,.121.055.168.168,0,0,1,.055.121ZM34.155-4.829a1.009,1.009,0,0,0-.726.242.754.754,0,0,0-.253.561.789.789,0,0,0,.253.572.983.983,0,0,0,.726.253.967.967,0,0,0,.715-.253.789.789,0,0,0,.253-.572.754.754,0,0,0-.253-.561A.993.993,0,0,0,34.155-4.829Zm0-.946a2.621,2.621,0,0,1,.875.137,2.064,2.064,0,0,1,.671.38,1.68,1.68,0,0,1,.429.556,1.511,1.511,0,0,1,.148.655,1.571,1.571,0,0,1-.148.671,1.72,1.72,0,0,1-.429.566,2.075,2.075,0,0,1-.676.391,2.611,2.611,0,0,1-.891.143,2.483,2.483,0,0,1-.869-.143A2.221,2.221,0,0,1,32.6-2.8a1.609,1.609,0,0,1-.429-.556,1.571,1.571,0,0,1-.149-.671,1.547,1.547,0,0,1,.149-.66,1.663,1.663,0,0,1,.429-.561,2.132,2.132,0,0,1,.677-.385A2.576,2.576,0,0,1,34.155-5.775ZM51.623-3.784a.141.141,0,0,1-.049.11.156.156,0,0,1-.1.044h-1.5V1.6a.126.126,0,0,1-.143.143h-.979a.126.126,0,0,1-.143-.143V-8.558a.126.126,0,0,1,.143-.143h.979a.126.126,0,0,1,.143.143v3.872h1.5a.168.168,0,0,1,.1.039.115.115,0,0,1,.049.093ZM42.614-.693A.26.26,0,0,1,42.229-.7l-.517-.484q-.154-.154.033-.341A7.112,7.112,0,0,0,42.966-2.97a7.839,7.839,0,0,0,.814-1.694q.132-.4.226-.786t.148-.792q.055-.4.077-.836T44.242-8a.158.158,0,0,1,.049-.115.147.147,0,0,1,.1-.05l.979.033a.13.13,0,0,1,.1.05.168.168,0,0,1,.044.115q0,.671-.044,1.248A10.662,10.662,0,0,1,45.331-5.6a5.171,5.171,0,0,0,.341,1.034,7.458,7.458,0,0,0,.539,1,7.093,7.093,0,0,0,.665.88,6.167,6.167,0,0,0,.71.688q.176.132.022.341l-.462.561A.2.2,0,0,1,47-1.012a.3.3,0,0,1-.2-.066,5.755,5.755,0,0,1-.561-.517,7.208,7.208,0,0,1-.567-.665q-.27-.357-.5-.737a5.127,5.127,0,0,1-.374-.731,8.621,8.621,0,0,1-.451.9A8.978,8.978,0,0,1,43.8-2a9.208,9.208,0,0,1-.589.726A5.453,5.453,0,0,1,42.614-.693Z" transform="translate(99 724)" fill="#ec636b"/>
    <g id="percentage" transform="translate(111.821 684.893)">
      <path id="패스_76" data-name="패스 76" d="M124.039,704.286c.017.155.842,2.885.842,2.885l2.851.258,2.078,2.542,2.834-1.614,2.25,1.357,2.181-2.542s2.817-.446,2.868-.446.842-3.229.842-3.229l2.164-1.906-.842-2.954,1.1-2.473-2.7-2.25-.24-2.765L136.8,690.5l-1.786-2.37-2.834,1.254-2.954-1.133-2.215,2.714-2.679.361-.378,2.868-2.593,2.164,1.443,3.057-1.116,2.679Z" transform="translate(-119.181 -685.878)" fill="#ec636b"/>
      <path id="패스_24" data-name="패스 24" d="M10.287,23.712a1.281,1.281,0,0,1-.331-.042A2.591,2.591,0,0,1,8.634,22.41a2.934,2.934,0,0,0-.772-.907A2.965,2.965,0,0,0,6.67,21.28a2.581,2.581,0,0,1-1.73-.51,2.577,2.577,0,0,1-.51-1.73,2.969,2.969,0,0,0-.223-1.19,2.928,2.928,0,0,0-.908-.772A2.589,2.589,0,0,1,2.04,15.754a2.542,2.542,0,0,1,.42-1.726,3.009,3.009,0,0,0,.41-1.172,3.01,3.01,0,0,0-.41-1.171,2.55,2.55,0,0,1-.42-1.726A2.59,2.59,0,0,1,3.3,8.636a2.928,2.928,0,0,0,.908-.772,2.97,2.97,0,0,0,.223-1.192,2.581,2.581,0,0,1,.51-1.73,2.577,2.577,0,0,1,1.73-.51,2.969,2.969,0,0,0,1.19-.223A2.934,2.934,0,0,0,8.634,3.3,2.591,2.591,0,0,1,9.957,2.044a2.561,2.561,0,0,1,1.726.42,3.009,3.009,0,0,0,1.171.409,3.009,3.009,0,0,0,1.171-.41,2.561,2.561,0,0,1,1.726-.42A2.591,2.591,0,0,1,17.074,3.3a2.934,2.934,0,0,0,.774.907,2.965,2.965,0,0,0,1.192.223,2.579,2.579,0,0,1,1.73.51,2.578,2.578,0,0,1,.509,1.73,2.969,2.969,0,0,0,.223,1.19,2.928,2.928,0,0,0,.908.772,2.589,2.589,0,0,1,1.259,1.323,2.551,2.551,0,0,1-.42,1.726,3.009,3.009,0,0,0-.41,1.172,3.01,3.01,0,0,0,.41,1.171,2.551,2.551,0,0,1,.42,1.726,2.59,2.59,0,0,1-1.259,1.323,2.928,2.928,0,0,0-.908.774,2.97,2.97,0,0,0-.223,1.192,2.581,2.581,0,0,1-.51,1.73,2.576,2.576,0,0,1-1.73.509,2.969,2.969,0,0,0-1.192.223,2.934,2.934,0,0,0-.772.907,2.591,2.591,0,0,1-1.323,1.259,2.559,2.559,0,0,1-1.726-.42,3.009,3.009,0,0,0-1.171-.41,3.008,3.008,0,0,0-1.171.41,3.327,3.327,0,0,1-1.4.462Zm0-21.091a.661.661,0,0,0-.172.021c-.372.1-.673.558-.966,1a3.311,3.311,0,0,1-.979,1.1,3.361,3.361,0,0,1-1.464.305,2.171,2.171,0,0,0-1.33.33,2.169,2.169,0,0,0-.33,1.33,3.361,3.361,0,0,1-.3,1.464,3.314,3.314,0,0,1-1.1.979c-.444.292-.9.595-1,.966a2.148,2.148,0,0,0,.376,1.289,3.412,3.412,0,0,1,.474,1.448A3.412,3.412,0,0,1,3.015,14.3a2.147,2.147,0,0,0-.376,1.289c.1.372.558.673,1,.966a3.316,3.316,0,0,1,1.1.979A3.361,3.361,0,0,1,5.049,19a2.171,2.171,0,0,0,.33,1.33,2.169,2.169,0,0,0,1.33.33,3.357,3.357,0,0,1,1.464.3,3.314,3.314,0,0,1,.979,1.1c.292.443.595.9.966,1a2.146,2.146,0,0,0,1.29-.376,3.41,3.41,0,0,1,1.447-.475,3.41,3.41,0,0,1,1.447.475,2.15,2.15,0,0,0,1.29.376c.372-.1.673-.558.966-1a3.311,3.311,0,0,1,.979-1.1A3.361,3.361,0,0,1,19,20.661a2.171,2.171,0,0,0,1.33-.33,2.169,2.169,0,0,0,.33-1.33,3.361,3.361,0,0,1,.3-1.464,3.314,3.314,0,0,1,1.1-.979c.444-.292.9-.595,1-.966a2.148,2.148,0,0,0-.376-1.289,3.412,3.412,0,0,1-.475-1.448,3.412,3.412,0,0,1,.475-1.448,2.155,2.155,0,0,0,.376-1.289c-.1-.372-.558-.673-1-.966a3.316,3.316,0,0,1-1.1-.979,3.361,3.361,0,0,1-.305-1.464,2.171,2.171,0,0,0-.33-1.33A2.169,2.169,0,0,0,19,5.051a3.356,3.356,0,0,1-1.464-.3,3.314,3.314,0,0,1-.979-1.1c-.292-.443-.595-.9-.966-1a2.15,2.15,0,0,0-1.29.376,3.41,3.41,0,0,1-1.447.474,3.41,3.41,0,0,1-1.447-.475,2.9,2.9,0,0,0-1.118-.4Z" transform="translate(0.198 0.247)" fill="#ec636b" stroke="#ec636b" stroke-width="0.5"/>
      <path id="패스_25" data-name="패스 25" d="M40.869,42.831a1.67,1.67,0,1,1,1.242-2.785h0a1.669,1.669,0,0,1-1.242,2.785Zm0-2.76a1.091,1.091,0,1,0,.813.362,1.091,1.091,0,0,0-.813-.362Z" transform="translate(-25.626 -25.825)" fill="#fff" stroke="#fff" stroke-width="0.5"/>
      <path id="패스_26" data-name="패스 26" d="M24.929,26.305a1.67,1.67,0,1,1,1.242-2.785h0a1.669,1.669,0,0,1-1.242,2.785Zm0-2.76a1.091,1.091,0,1,0,.813.362h0a1.09,1.09,0,0,0-.814-.362Z" transform="translate(-14.274 -14.055)" fill="#fff" stroke="#fff" stroke-width="0.5"/>
      <path id="패스_27" data-name="패스 27" d="M22.919,29.945a.248.248,0,0,1-.173-.425l6.605-6.435a.248.248,0,1,1,.347.355l-6.606,6.434A.248.248,0,0,1,22.919,29.945Z" transform="translate(-13.686 -13.166)" fill="#fff" stroke="#fff" stroke-width="0.5"/>
    </g>
  </g>
</svg>
