<svg xmlns="http://www.w3.org/2000/svg" width="23.172" height="39.56" viewBox="0 0 23.172 39.56">
  <g id="채팅" transform="translate(-277.789 -686.178)">
    <path id="패스_144" data-name="패스 144" d="M8.294-8.558q0-.143.154-.143h.946a.126.126,0,0,1,.143.143V1.6a.126.126,0,0,1-.143.143H8.437A.126.126,0,0,1,8.294,1.6v-5.2H7.348V1.177q0,.154-.143.154H6.3a.136.136,0,0,1-.154-.154V-8.36q0-.143.154-.143h.9a.126.126,0,0,1,.143.143v3.7h.946ZM1.155-.836A.366.366,0,0,1,.99-.781.155.155,0,0,1,.836-.847L.429-1.364a.21.21,0,0,1-.044-.165.2.2,0,0,1,.1-.154,8.062,8.062,0,0,0,1.007-.776,8.653,8.653,0,0,0,.847-.88,8.119,8.119,0,0,0,.671-.929A5.561,5.561,0,0,0,3.476-5.2a.963.963,0,0,0,.066-.2q.011-.071-.187-.071H1.078A.1.1,0,0,1,.99-5.528a.2.2,0,0,1-.033-.115v-.682q0-.154.132-.154H4.07a1.406,1.406,0,0,1,.693.127.435.435,0,0,1,.209.4,1.066,1.066,0,0,1-.038.242q-.039.154-.061.22a9.3,9.3,0,0,1-.379.907A7.45,7.45,0,0,1,4-3.718a5.761,5.761,0,0,0,.4.49q.225.247.467.479t.468.424q.226.192.4.324.121.088.121.171a.243.243,0,0,1-.066.159l-.429.528a.166.166,0,0,1-.154.072.389.389,0,0,1-.187-.061,7.7,7.7,0,0,1-.852-.731,9.979,9.979,0,0,1-.842-.93A10.123,10.123,0,0,1,2.326-1.738,9.119,9.119,0,0,1,1.155-.836ZM4.367-7.315a.177.177,0,0,1-.049.121.163.163,0,0,1-.127.055H1.9a.2.2,0,0,1-.115-.044A.141.141,0,0,1,1.727-7.3v-.638a.141.141,0,0,1,.061-.121A.2.2,0,0,1,1.9-8.107H4.191a.168.168,0,0,1,.121.055.168.168,0,0,1,.055.121ZM19.382-.22a1.5,1.5,0,0,1-.22.792,1.827,1.827,0,0,1-.643.616,3.622,3.622,0,0,1-1.034.4,6.128,6.128,0,0,1-1.392.143A6.128,6.128,0,0,1,14.7,1.584a3.622,3.622,0,0,1-1.034-.4,1.877,1.877,0,0,1-.649-.616,1.472,1.472,0,0,1-.226-.792,1.472,1.472,0,0,1,.226-.792,1.924,1.924,0,0,1,.649-.622,3.518,3.518,0,0,1,1.034-.4,6.842,6.842,0,0,1,2.783,0,3.518,3.518,0,0,1,1.034.4,1.872,1.872,0,0,1,.643.622A1.5,1.5,0,0,1,19.382-.22ZM16.9-3.531a.147.147,0,0,1-.044.159.311.311,0,0,1-.121.06,9.577,9.577,0,0,1-.974.171q-.556.072-1.161.11t-1.2.049q-.6.011-1.105-.022a.88.88,0,0,1-.572-.231.751.751,0,0,1-.22-.572v-3.74a.734.734,0,0,1,.16-.539.832.832,0,0,1,.578-.154h3.674q.154,0,.154.143v.737q0,.143-.154.143H12.969a.262.262,0,0,0-.16.038.2.2,0,0,0-.049.16v.858q.781,0,1.579-.006T15.8-6.215a.314.314,0,0,1,.1.022.079.079,0,0,1,.061.077V-5.4q0,.187-.121.187-.7.055-1.512.061t-1.568.005v.792q0,.187.061.237a.574.574,0,0,0,.269.071q.242.022.66.022t.9-.033q.484-.033.984-.082t.908-.127a.238.238,0,0,1,.143,0,.14.14,0,0,1,.088.11Zm2.409,1.045a.126.126,0,0,1-.143.143h-.979q-.143,0-.143-.154V-8.558a.126.126,0,0,1,.143-.143h.979a.126.126,0,0,1,.143.143ZM18.062-.22a.777.777,0,0,0-.517-.7,3.372,3.372,0,0,0-1.452-.253,3.3,3.3,0,0,0-1.436.253.777.777,0,0,0-.512.7.777.777,0,0,0,.512.7,3.3,3.3,0,0,0,1.436.253A3.372,3.372,0,0,0,17.545.484.777.777,0,0,0,18.062-.22Z" transform="translate(279 724)" fill="#333"/>
    <g id="chat" transform="translate(278 686.351)">
      <g id="그룹_25" data-name="그룹 25" transform="translate(0 0.027)">
        <g id="그룹_24" data-name="그룹 24" transform="translate(0)">
          <path id="패스_28" data-name="패스 28" d="M9.242.027A9.252,9.252,0,0,0,0,9.268,9.132,9.132,0,0,0,1.4,14.16L.051,17.533a.711.711,0,0,0,.926.924L4.35,17.106a9.121,9.121,0,0,0,4.892,1.4,9.241,9.241,0,1,0,0-18.482Zm0,17.06a7.707,7.707,0,0,1-4.406-1.363.711.711,0,0,0-.67-.075l-2.178.873.873-2.178a.716.716,0,0,0-.075-.67A7.707,7.707,0,0,1,1.422,9.268a7.819,7.819,0,1,1,7.819,7.819Z" transform="translate(0 -0.027)" fill="#333" stroke="#fff" stroke-width="0.4"/>
        </g>
      </g>
      <g id="그룹_27" data-name="그룹 27" transform="translate(9.852 9.879)">
        <g id="그룹_26" data-name="그룹 26">
          <path id="패스_29" data-name="패스 29" d="M233.5,230.951a7.833,7.833,0,0,0-.491-8.887.71.71,0,1,0-1.123.87,6.413,6.413,0,0,1,.23,7.535.71.71,0,0,0-.074.667l.623,1.562-1.562-.623a.71.71,0,0,0-.667.074,6.5,6.5,0,0,1-7.535-.232.711.711,0,0,0-.873,1.123,7.957,7.957,0,0,0,8.888.49l2.757,1.1a.764.764,0,0,0,.266.05.71.71,0,0,0,.661-.974Z" transform="translate(-221.75 -221.787)" fill="#333" stroke="#fff" stroke-width="0.4"/>
        </g>
      </g>
    </g>
  </g>
</svg>
