<svg xmlns="http://www.w3.org/2000/svg" width="51.414" height="38.964" viewBox="0 0 51.414 38.964">
  <g id="오늘의행사" transform="translate(-99.209 -686.774)">
    <path id="패스_142" data-name="패스 142" d="M10.109-.209a.158.158,0,0,1-.055.11.158.158,0,0,1-.11.055H.363A.135.135,0,0,1,.253-.1a.176.176,0,0,1-.044-.11V-.924q0-.176.154-.176H4.521V-3.135A4.779,4.779,0,0,1,3.328-3.4a3.362,3.362,0,0,1-.941-.523,2.326,2.326,0,0,1-.616-.743,2.009,2.009,0,0,1-.22-.941,1.983,1.983,0,0,1,.275-1.034,2.513,2.513,0,0,1,.759-.792,3.711,3.711,0,0,1,1.144-.506,5.536,5.536,0,0,1,1.43-.176,5.536,5.536,0,0,1,1.43.176,3.711,3.711,0,0,1,1.144.506,2.455,2.455,0,0,1,.754.792A2.014,2.014,0,0,1,8.756-5.61a2.009,2.009,0,0,1-.22.941,2.326,2.326,0,0,1-.616.743,3.362,3.362,0,0,1-.94.523,4.779,4.779,0,0,1-1.194.269V-1.1H9.944a.158.158,0,0,1,.11.055.168.168,0,0,1,.055.121ZM5.159-7.073a3.616,3.616,0,0,0-.88.1,2.59,2.59,0,0,0-.732.3,1.646,1.646,0,0,0-.5.462,1.028,1.028,0,0,0-.187.6,1.053,1.053,0,0,0,.187.605,1.617,1.617,0,0,0,.5.467,2.59,2.59,0,0,0,.732.3,3.616,3.616,0,0,0,.88.1,3.616,3.616,0,0,0,.88-.1,2.59,2.59,0,0,0,.731-.3,1.557,1.557,0,0,0,.5-.467,1.076,1.076,0,0,0,.181-.605,1.05,1.05,0,0,0-.181-.6,1.583,1.583,0,0,0-.5-.462,2.59,2.59,0,0,0-.731-.3A3.616,3.616,0,0,0,5.159-7.073ZM19.074-5.445a.111.111,0,0,1-.049.1.185.185,0,0,1-.1.033h-5.9a.934.934,0,0,1-.677-.181.881.881,0,0,1-.17-.61V-8.569a.147.147,0,0,1,.05-.1.147.147,0,0,1,.1-.05h.946a.177.177,0,0,1,.121.05.142.142,0,0,1,.055.1v2.024A.175.175,0,0,0,13.5-6.4a.292.292,0,0,0,.165.033H18.92a.168.168,0,0,1,.1.039.115.115,0,0,1,.049.093Zm1.364,1.76a.158.158,0,0,1-.055.11.158.158,0,0,1-.11.055H10.7a.141.141,0,0,1-.11-.049.168.168,0,0,1-.044-.115v-.7q0-.165.154-.165h9.57a.166.166,0,0,1,.11.049.151.151,0,0,1,.055.115ZM19.173,1.452a.142.142,0,0,1-.055.1.158.158,0,0,1-.1.05H12.87a.83.83,0,0,1-.583-.154.7.7,0,0,1-.154-.506V-.407a.735.735,0,0,1,.148-.512.788.788,0,0,1,.578-.16h4.686a.222.222,0,0,0,.11-.016q.022-.016.022-.115v-.4a.26.26,0,0,0-.022-.143.2.2,0,0,0-.121-.022H12.265a.168.168,0,0,1-.1-.038.115.115,0,0,1-.05-.094V-2.64a.147.147,0,0,1,.05-.1.147.147,0,0,1,.1-.049h5.9a.9.9,0,0,1,.6.143.708.708,0,0,1,.149.517V-.792a.685.685,0,0,1-.149.517.952.952,0,0,1-.6.132H13.508q-.088,0-.11.027A.2.2,0,0,0,13.376,0V.451q0,.1.022.116a.257.257,0,0,0,.121.016h5.489a.191.191,0,0,1,.11.038.132.132,0,0,1,.055.115ZM29.755,1.6q0,.143-.154.143h-.968a.168.168,0,0,1-.1-.038.125.125,0,0,1-.049-.1V-8.558a.13.13,0,0,1,.049-.1.156.156,0,0,1,.1-.044H29.6q.154,0,.154.143Zm-5.39-8.613a1.4,1.4,0,0,0-1.034.407,1.486,1.486,0,0,0-.407,1.1A1.5,1.5,0,0,0,23.331-4.4a1.4,1.4,0,0,0,1.034.407A1.429,1.429,0,0,0,25.421-4.4a1.5,1.5,0,0,0,.407-1.111,1.486,1.486,0,0,0-.407-1.1A1.429,1.429,0,0,0,24.365-7.018Zm0-1.045a3,3,0,0,1,1.051.182,2.544,2.544,0,0,1,.853.517,2.416,2.416,0,0,1,.572.809,2.557,2.557,0,0,1,.209,1.045,2.547,2.547,0,0,1-.209,1.051,2.314,2.314,0,0,1-.572.792,2.567,2.567,0,0,1-.853.5,3.115,3.115,0,0,1-1.062.176,3.035,3.035,0,0,1-1.045-.176,2.516,2.516,0,0,1-.841-.5,2.349,2.349,0,0,1-.566-.792,2.547,2.547,0,0,1-.209-1.051A2.557,2.557,0,0,1,21.9-6.556a2.455,2.455,0,0,1,.566-.809,2.483,2.483,0,0,1,.847-.517A3,3,0,0,1,24.365-8.063ZM21.043-1.408a.168.168,0,0,1,.044-.115.154.154,0,0,1,.121-.049q.781.022,1.65,0t1.733-.066q.863-.044,1.678-.115t1.5-.16a.3.3,0,0,1,.127.006.108.108,0,0,1,.083.1l.066.715A.156.156,0,0,1,28-.952a.206.206,0,0,1-.1.061q-.616.088-1.441.165t-1.733.132q-.907.055-1.82.083T21.208-.5a.154.154,0,0,1-.121-.05.168.168,0,0,1-.044-.115Zm18.271-7.15q0-.143.154-.143h.946a.126.126,0,0,1,.143.143v6.193a.126.126,0,0,1-.143.143h-.957a.126.126,0,0,1-.143-.143V-4.73h-.946v2.024q0,.154-.143.154h-.913a.136.136,0,0,1-.154-.154V-8.382q0-.143.154-.143h.913a.126.126,0,0,1,.143.143v2.6h.946Zm.033,8.415a.515.515,0,0,0-.171-.368,1.456,1.456,0,0,0-.473-.3,3.339,3.339,0,0,0-.715-.2,5.795,5.795,0,0,0-1.815,0,3.226,3.226,0,0,0-.709.2,1.466,1.466,0,0,0-.467.3.515.515,0,0,0-.171.368A.461.461,0,0,0,35,.192a1.517,1.517,0,0,0,.467.281,3.458,3.458,0,0,0,.709.193,5.329,5.329,0,0,0,.908.071,5.329,5.329,0,0,0,.908-.071A3.584,3.584,0,0,0,38.7.473a1.507,1.507,0,0,0,.473-.281A.461.461,0,0,0,39.347-.143Zm1.3-.033a1.238,1.238,0,0,1-.275.781,2.232,2.232,0,0,1-.759.6,4.418,4.418,0,0,1-1.133.38,7.007,7.007,0,0,1-1.4.132,7.007,7.007,0,0,1-1.4-.132,4.418,4.418,0,0,1-1.133-.38,2.232,2.232,0,0,1-.759-.6,1.238,1.238,0,0,1-.275-.781,1.216,1.216,0,0,1,.275-.776,2.266,2.266,0,0,1,.759-.594,4.418,4.418,0,0,1,1.133-.38,7.458,7.458,0,0,1,2.794,0,4.418,4.418,0,0,1,1.133.38,2.266,2.266,0,0,1,.759.594A1.216,1.216,0,0,1,40.645-.176ZM36.619-6.292a.158.158,0,0,1-.049.115.158.158,0,0,1-.115.049H31.735a.158.158,0,0,1-.11-.055A.168.168,0,0,1,31.57-6.3v-.605a.153.153,0,0,1,.061-.11.177.177,0,0,1,.115-.055h4.708a.158.158,0,0,1,.115.049.158.158,0,0,1,.049.116Zm-1.1-1.419a.191.191,0,0,1-.049.132.163.163,0,0,1-.126.055H32.967a.189.189,0,0,1-.1-.044.141.141,0,0,1-.06-.121v-.627a.141.141,0,0,1,.06-.121.189.189,0,0,1,.1-.044h2.376a.168.168,0,0,1,.121.055.168.168,0,0,1,.055.121ZM34.155-4.829a1.009,1.009,0,0,0-.726.242.754.754,0,0,0-.253.561.789.789,0,0,0,.253.572.983.983,0,0,0,.726.253.967.967,0,0,0,.715-.253.789.789,0,0,0,.253-.572.754.754,0,0,0-.253-.561A.993.993,0,0,0,34.155-4.829Zm0-.946a2.621,2.621,0,0,1,.875.137,2.064,2.064,0,0,1,.671.38,1.68,1.68,0,0,1,.429.556,1.511,1.511,0,0,1,.148.655,1.571,1.571,0,0,1-.148.671,1.72,1.72,0,0,1-.429.566,2.075,2.075,0,0,1-.676.391,2.611,2.611,0,0,1-.891.143,2.483,2.483,0,0,1-.869-.143A2.221,2.221,0,0,1,32.6-2.8a1.609,1.609,0,0,1-.429-.556,1.571,1.571,0,0,1-.149-.671,1.547,1.547,0,0,1,.149-.66,1.663,1.663,0,0,1,.429-.561,2.132,2.132,0,0,1,.677-.385A2.576,2.576,0,0,1,34.155-5.775ZM51.623-3.784a.141.141,0,0,1-.049.11.156.156,0,0,1-.1.044h-1.5V1.6a.126.126,0,0,1-.143.143h-.979a.126.126,0,0,1-.143-.143V-8.558a.126.126,0,0,1,.143-.143h.979a.126.126,0,0,1,.143.143v3.872h1.5a.168.168,0,0,1,.1.039.115.115,0,0,1,.049.093ZM42.614-.693A.26.26,0,0,1,42.229-.7l-.517-.484q-.154-.154.033-.341A7.112,7.112,0,0,0,42.966-2.97a7.839,7.839,0,0,0,.814-1.694q.132-.4.226-.786t.148-.792q.055-.4.077-.836T44.242-8a.158.158,0,0,1,.049-.115.147.147,0,0,1,.1-.05l.979.033a.13.13,0,0,1,.1.05.168.168,0,0,1,.044.115q0,.671-.044,1.248A10.662,10.662,0,0,1,45.331-5.6a5.171,5.171,0,0,0,.341,1.034,7.458,7.458,0,0,0,.539,1,7.093,7.093,0,0,0,.665.88,6.167,6.167,0,0,0,.71.688q.176.132.022.341l-.462.561A.2.2,0,0,1,47-1.012a.3.3,0,0,1-.2-.066,5.755,5.755,0,0,1-.561-.517,7.208,7.208,0,0,1-.567-.665q-.27-.357-.5-.737a5.127,5.127,0,0,1-.374-.731,8.621,8.621,0,0,1-.451.9A8.978,8.978,0,0,1,43.8-2a9.208,9.208,0,0,1-.589.726A5.453,5.453,0,0,1,42.614-.693Z" transform="translate(99 724)" fill="#333"/>
    <g id="percentage" transform="translate(111.806 684.766)">
      <path id="패스_24" data-name="패스 24" d="M10.387,23.973a1.3,1.3,0,0,1-.335-.043,2.622,2.622,0,0,1-1.339-1.274,2.969,2.969,0,0,0-.781-.918,3,3,0,0,0-1.206-.225A2.612,2.612,0,0,1,4.975,21a2.608,2.608,0,0,1-.516-1.751,3.005,3.005,0,0,0-.226-1.2,2.963,2.963,0,0,0-.918-.782,2.62,2.62,0,0,1-1.274-1.339,2.573,2.573,0,0,1,.425-1.747,3.045,3.045,0,0,0,.415-1.186A3.047,3.047,0,0,0,2.466,11.8a2.581,2.581,0,0,1-.425-1.747A2.621,2.621,0,0,1,3.315,8.716a2.963,2.963,0,0,0,.918-.781,3.005,3.005,0,0,0,.225-1.206,2.612,2.612,0,0,1,.516-1.751,2.608,2.608,0,0,1,1.751-.516,3.005,3.005,0,0,0,1.2-.226,2.969,2.969,0,0,0,.783-.917,2.622,2.622,0,0,1,1.339-1.274A2.592,2.592,0,0,1,11.8,2.47a3.045,3.045,0,0,0,1.185.414,3.045,3.045,0,0,0,1.185-.415,2.592,2.592,0,0,1,1.747-.425,2.622,2.622,0,0,1,1.339,1.274,2.969,2.969,0,0,0,.783.918,3,3,0,0,0,1.206.225,2.61,2.61,0,0,1,1.751.516,2.609,2.609,0,0,1,.515,1.751,3.005,3.005,0,0,0,.226,1.2,2.963,2.963,0,0,0,.918.782,2.62,2.62,0,0,1,1.274,1.339A2.581,2.581,0,0,1,23.5,11.8a3.045,3.045,0,0,0-.415,1.186,3.047,3.047,0,0,0,.415,1.185,2.581,2.581,0,0,1,.425,1.747,2.621,2.621,0,0,1-1.274,1.339,2.963,2.963,0,0,0-.918.783,3.006,3.006,0,0,0-.225,1.206A2.612,2.612,0,0,1,20.994,21a2.607,2.607,0,0,1-1.751.515,3.005,3.005,0,0,0-1.206.226,2.969,2.969,0,0,0-.782.918,2.622,2.622,0,0,1-1.339,1.274,2.59,2.59,0,0,1-1.747-.425,3.045,3.045,0,0,0-1.185-.415A3.045,3.045,0,0,0,11.8,23.5a3.366,3.366,0,0,1-1.412.468Zm0-21.344a.669.669,0,0,0-.174.021c-.377.1-.681.565-.977,1.013a3.351,3.351,0,0,1-.991,1.116,3.4,3.4,0,0,1-1.482.309,2.2,2.2,0,0,0-1.346.334,2.195,2.195,0,0,0-.334,1.346,3.4,3.4,0,0,1-.309,1.482,3.354,3.354,0,0,1-1.114.991c-.449.3-.912.6-1.013.977a2.174,2.174,0,0,0,.381,1.3,3.453,3.453,0,0,1,.48,1.465,3.453,3.453,0,0,1-.481,1.465,2.173,2.173,0,0,0-.381,1.3c.1.377.565.681,1.013.977a3.355,3.355,0,0,1,1.116.991,3.4,3.4,0,0,1,.309,1.482,2.2,2.2,0,0,0,.334,1.346,2.195,2.195,0,0,0,1.346.334,3.4,3.4,0,0,1,1.482.309,3.354,3.354,0,0,1,.991,1.116c.3.449.6.912.977,1.013a2.172,2.172,0,0,0,1.305-.38,3.451,3.451,0,0,1,1.465-.481,3.451,3.451,0,0,1,1.465.481,2.176,2.176,0,0,0,1.305.38c.377-.1.681-.565.977-1.013a3.351,3.351,0,0,1,.991-1.116,3.4,3.4,0,0,1,1.482-.309,2.2,2.2,0,0,0,1.346-.334,2.195,2.195,0,0,0,.334-1.346,3.4,3.4,0,0,1,.309-1.482,3.354,3.354,0,0,1,1.116-.991c.449-.3.912-.6,1.013-.977a2.174,2.174,0,0,0-.381-1.3,3.453,3.453,0,0,1-.481-1.465,3.453,3.453,0,0,1,.481-1.465,2.181,2.181,0,0,0,.381-1.3c-.1-.377-.565-.681-1.013-.977a3.355,3.355,0,0,1-1.116-.991,3.4,3.4,0,0,1-.309-1.482,2.2,2.2,0,0,0-.334-1.346A2.195,2.195,0,0,0,19.2,5.087a3.4,3.4,0,0,1-1.482-.309,3.354,3.354,0,0,1-.991-1.115c-.3-.449-.6-.912-.977-1.013a2.176,2.176,0,0,0-1.305.38,3.451,3.451,0,0,1-1.465.48A3.451,3.451,0,0,1,11.52,3.03a2.935,2.935,0,0,0-1.132-.4Z" transform="translate(0.197 0.247)" fill="#333" stroke="#333" stroke-width="0.5"/>
      <path id="패스_25" data-name="패스 25" d="M40.889,42.871a1.69,1.69,0,1,1,1.257-2.818h0a1.689,1.689,0,0,1-1.257,2.818Zm0-2.794a1.1,1.1,0,1,0,.823.367,1.1,1.1,0,0,0-.823-.367Z" transform="translate(-25.49 -25.687)" fill="#333" stroke="#333" stroke-width="0.5"/>
      <path id="패스_26" data-name="패스 26" d="M24.95,26.345a1.69,1.69,0,1,1,1.257-2.818h0a1.689,1.689,0,0,1-1.257,2.818Zm0-2.794a1.1,1.1,0,1,0,.823.367h0a1.1,1.1,0,0,0-.824-.367Z" transform="translate(-14.193 -13.975)" fill="#333" stroke="#333" stroke-width="0.5"/>
      <path id="패스_27" data-name="패스 27" d="M22.922,30.029a.251.251,0,0,1-.176-.43l6.685-6.512a.251.251,0,1,1,.351.359L23.1,29.957A.251.251,0,0,1,22.922,30.029Z" transform="translate(-13.606 -13.075)" fill="#333" stroke="#333" stroke-width="0.5"/>
    </g>
  </g>
</svg>
