<svg xmlns="http://www.w3.org/2000/svg" width="47.377" height="39.133" viewBox="0 0 47.377 39.133">
  <g id="배송픽업" transform="translate(-183.715 -686.616)">
    <g id="공급업체" transform="translate(-1306 -180.437)">
      <g id="합치기_1" data-name="합치기 1" transform="translate(1502 866.982)" fill="#fff">
        <path d="M 20.36790084838867 21.94060134887695 L 1.999800324440002 21.94060134887695 C 1.172810316085815 21.94060134887695 0.5000002980232239 21.26778984069824 0.5000002980232239 20.44079971313477 L 0.5000002980232239 7.948800563812256 C 0.5000002980232239 7.506240367889404 0.6942002773284912 7.088400363922119 1.032800316810608 6.80241060256958 L 1.036420345306396 6.799360275268555 L 1.039980292320251 6.796230316162109 C 1.105930328369141 6.738350391387939 1.178300261497498 6.684200286865234 1.255080342292786 6.635270595550537 L 10.25998020172119 0.8039904832839966 C 10.49822044372559 0.6523604989051819 10.77725028991699 0.5711004734039307 11.06359004974365 0.5711004734039307 C 11.34982013702393 0.5711004734039307 11.62852001190186 0.6523104906082153 11.86956024169922 0.8059404492378235 L 21.15775108337402 6.637070655822754 C 21.40645027160645 6.795530319213867 21.58872985839844 7.002500534057617 21.69671058654785 7.25044059753418 L 21.7022705078125 7.263220310211182 L 21.70853996276855 7.275680541992188 C 21.81414985656738 7.485400676727295 21.86770057678223 7.711870670318604 21.86770057678223 7.948800563812256 L 21.86770057678223 20.44079971313477 C 21.86770057678223 21.26778984069824 21.19489097595215 21.94060134887695 20.36790084838867 21.94060134887695 Z" stroke="none"/>
        <path d="M 20.36790084838867 21.44060134887695 C 20.919189453125 21.44060134887695 21.36770057678223 20.99209022521973 21.36770057678223 20.44079971313477 L 21.36770057678223 7.948800563812256 C 21.36770057678223 7.790690422058105 21.33213043212891 7.639880657196045 21.26197052001953 7.500550270080566 L 21.24942970275879 7.475650310516357 L 21.23829078674316 7.450090408325195 C 21.17101287841797 7.295598983764648 21.05319404602051 7.163730621337891 20.88806343078613 7.058121681213379 L 11.60660076141357 1.231230497360229 L 11.60371017456055 1.22942042350769 L 11.600830078125 1.227580428123474 C 11.44021034240723 1.125210523605347 11.25444030761719 1.071100473403931 11.06359004974365 1.071100473403931 C 10.87351131439209 1.071100473403931 10.68826961517334 1.124765157699585 10.52766799926758 1.226313829421997 L 1.529950261116028 7.052970409393311 L 1.526870250701904 7.054970264434814 L 1.523770332336426 7.056950569152832 C 1.468430280685425 7.092210292816162 1.416620254516602 7.130930423736572 1.369790315628052 7.172030448913574 L 1.362670302391052 7.178280353546143 L 1.355430245399475 7.184390544891357 C 1.129550337791443 7.375180244445801 1.000000238418579 7.653790473937988 1.000000238418579 7.948800563812256 L 1.000000238418579 20.44079971313477 C 1.000000238418579 20.99209022521973 1.4485102891922 21.44060134887695 1.999800324440002 21.44060134887695 L 20.36790084838867 21.44060134887695 M 20.36790084838867 22.44060134887695 L 1.999800324440002 22.44060134887695 C 0.8955003023147583 22.44060134887695 2.883911065509892e-07 21.54510116577148 2.883911065509892e-07 20.44079971313477 L 2.883911065509892e-07 7.948800563812256 C 2.883911065509892e-07 7.335850238800049 0.2758202850818634 6.787290573120117 0.7101702690124512 6.420430660247803 C 0.7942503094673157 6.346640586853027 0.8862403035163879 6.277420520782471 0.986400306224823 6.213600635528564 L 9.988200187683105 0.3843004703521729 C 10.31624984741211 0.1755004674196243 10.68997573852539 0.07110047340393066 11.06358814239502 0.07110047340393066 C 11.43720054626465 0.07110047340393066 11.81070041656494 0.1755004674196243 12.1382999420166 0.3843004703521729 L 21.4236011505127 6.213600635528564 C 21.77606964111328 6.438170433044434 22.01532936096191 6.729820251464844 22.15512084960938 7.050800323486328 C 22.29109954833984 7.320840358734131 22.36770057678223 7.625880241394043 22.36770057678223 7.948800563812256 L 22.36770057678223 20.44079971313477 C 22.36770057678223 21.54510116577148 21.47220039367676 22.44060134887695 20.36790084838867 22.44060134887695 Z" stroke="none" fill="#333"/>
      </g>
      <g id="사각형_6" data-name="사각형 6" transform="translate(1505.344 873.742)" fill="none" stroke="#333" stroke-width="1">
        <path d="M3,0h9.68a3,3,0,0,1,3,3V15.68a0,0,0,0,1,0,0H0a0,0,0,0,1,0,0V3A3,3,0,0,1,3,0Z" stroke="none"/>
        <path d="M3,.5h9.68A2.5,2.5,0,0,1,15.18,3V14.68a.5.5,0,0,1-.5.5H1a.5.5,0,0,1-.5-.5V3A2.5,2.5,0,0,1,3,.5Z" fill="none"/>
      </g>
      <line id="선_11" data-name="선 11" x2="15.389" transform="translate(1505.49 877.968)" fill="none" stroke="#333" stroke-width="1"/>
      <g id="그룹_29" data-name="그룹 29" transform="translate(1509.129 881.312)">
        <g id="사각형_7" data-name="사각형 7" transform="translate(0 0)" fill="none" stroke="#333" stroke-width="1">
          <path d="M2,0h.326a2,2,0,0,1,2,2V8.111a0,0,0,0,1,0,0H0a0,0,0,0,1,0,0V2A2,2,0,0,1,2,0Z" stroke="none"/>
          <path d="M2,.5h.326A1.5,1.5,0,0,1,3.826,2V7.111a.5.5,0,0,1-.5.5H1a.5.5,0,0,1-.5-.5V2A1.5,1.5,0,0,1,2,.5Z" fill="none"/>
        </g>
        <g id="사각형_8" data-name="사각형 8" transform="translate(7.845 3.785) rotate(90)" fill="none" stroke="#333" stroke-width="1">
          <path d="M2,0H4.326a0,0,0,0,1,0,0V7.845a0,0,0,0,1,0,0H0a0,0,0,0,1,0,0V2A2,2,0,0,1,2,0Z" stroke="none"/>
          <path d="M2,.5H3.326a.5.5,0,0,1,.5.5V6.845a.5.5,0,0,1-.5.5H1a.5.5,0,0,1-.5-.5V2A1.5,1.5,0,0,1,2,.5Z" fill="none"/>
        </g>
      </g>
      <line id="선_12" data-name="선 12" x2="3.221" transform="translate(1511.573 871.168)" fill="none" stroke="#333" stroke-linecap="round" stroke-width="1"/>
    </g>
    <path id="패스_143" data-name="패스 143" d="M8.294-8.558q0-.143.154-.143h.946a.126.126,0,0,1,.143.143V1.6a.126.126,0,0,1-.143.143H8.437A.126.126,0,0,1,8.294,1.6V-3.6H7.271V1.177q0,.154-.143.154h-.9a.136.136,0,0,1-.154-.154V-8.36q0-.143.154-.143h.9a.126.126,0,0,1,.143.143v3.707H8.294ZM3.839-4.5H1.947v2.013q0,.187.209.187H3.63q.209,0,.209-.187ZM5.071-2.024a.774.774,0,0,1-.176.55.9.9,0,0,1-.66.187H1.562a1,1,0,0,1-.671-.165.817.817,0,0,1-.176-.605v-5.83a.12.12,0,0,1,.044-.094.146.146,0,0,1,.1-.038h.935a.168.168,0,0,1,.1.038.115.115,0,0,1,.049.094V-5.5H3.839V-7.9A.137.137,0,0,1,3.883-8a.137.137,0,0,1,.1-.044h.946a.137.137,0,0,1,.1.044.137.137,0,0,1,.044.1ZM18.953-.176a1.568,1.568,0,0,1-.9,1.414,5.252,5.252,0,0,1-2.569.512,5.252,5.252,0,0,1-2.569-.512,1.568,1.568,0,0,1-.9-1.414,1.572,1.572,0,0,1,.9-1.408A5.2,5.2,0,0,1,15.488-2.1a5.2,5.2,0,0,1,2.569.517A1.572,1.572,0,0,1,18.953-.176Zm1.485-2.772a.158.158,0,0,1-.055.11.158.158,0,0,1-.11.055H10.7a.141.141,0,0,1-.11-.049.168.168,0,0,1-.044-.115v-.726q0-.165.154-.165h4.158V-5.148a.136.136,0,0,1,.154-.154h.9a.168.168,0,0,1,.116.044.141.141,0,0,1,.049.11v1.309h4.191a.158.158,0,0,1,.11.055.158.158,0,0,1,.055.11Zm-8.4-1.771q-.242.055-.3-.066l-.3-.7a.172.172,0,0,1,0-.121.135.135,0,0,1,.1-.088,9.834,9.834,0,0,0,1.375-.468A4.316,4.316,0,0,0,13.92-6.76a2.508,2.508,0,0,0,.644-.77,2.651,2.651,0,0,0,.286-1,.185.185,0,0,1,.209-.176l.869.033a.136.136,0,0,1,.154.154q-.011.11-.017.215a1.236,1.236,0,0,1-.028.2,2.493,2.493,0,0,0,.534.781,4.746,4.746,0,0,0,.819.66,6.449,6.449,0,0,0,1,.523,7.277,7.277,0,0,0,1.078.357.15.15,0,0,1,.093.082.142.142,0,0,1,.006.116l-.33.671q-.055.154-.253.121a5.127,5.127,0,0,1-.946-.264,6.825,6.825,0,0,1-.968-.457,5.965,5.965,0,0,1-.875-.606,3.59,3.59,0,0,1-.665-.721A4.245,4.245,0,0,1,14.118-5.54,7.651,7.651,0,0,1,12.034-4.719Zm3.454,3.586a3.738,3.738,0,0,0-1.656.286q-.556.286-.556.682t.556.677A3.676,3.676,0,0,0,15.488.8,3.676,3.676,0,0,0,17.144.512Q17.7.22,17.7-.165t-.556-.682A3.738,3.738,0,0,0,15.488-1.133ZM27.445.473a1.4,1.4,0,0,1-.214-.011A.235.235,0,0,1,27.1.374L26.477-.3A3.342,3.342,0,0,1,24.1.649,3.674,3.674,0,0,1,23.051.5a2.684,2.684,0,0,1-.885-.446A2.178,2.178,0,0,1,21.549-.7a2.347,2.347,0,0,1-.231-1.073,2.32,2.32,0,0,1,.434-1.408,3.4,3.4,0,0,1,1.237-1,7.355,7.355,0,0,1-.588-.836,1.9,1.9,0,0,1-.259-1,1.676,1.676,0,0,1,.209-.841,1.983,1.983,0,0,1,.539-.616,2.387,2.387,0,0,1,.748-.374,2.873,2.873,0,0,1,.836-.127,2.573,2.573,0,0,1,.787.121,1.972,1.972,0,0,1,.665.358,1.731,1.731,0,0,1,.457.589,1.846,1.846,0,0,1,.17.814,2.053,2.053,0,0,1-.407,1.21,3.222,3.222,0,0,1-1.309.99l1.606,1.815a2.453,2.453,0,0,0,.341-.809,4.044,4.044,0,0,0,.121-.973.368.368,0,0,1,.028-.187q.028-.033.17-.033h.77q.132,0,.16.033a.368.368,0,0,1,.028.187A4.219,4.219,0,0,1,28-3.168a6.2,6.2,0,0,1-.165.72,4.379,4.379,0,0,1-.259.677,3.207,3.207,0,0,1-.33.55L28.578.242A.222.222,0,0,1,28.655.4q0,.077-.187.077ZM24.431-6.864a1.223,1.223,0,0,0-.72.22.764.764,0,0,0-.314.671,1.234,1.234,0,0,0,.187.539,5.616,5.616,0,0,0,.506.748q.209-.1.418-.214a2.183,2.183,0,0,0,.379-.264,1.281,1.281,0,0,0,.281-.347.96.96,0,0,0,.11-.473.963.963,0,0,0-.209-.616A.764.764,0,0,0,24.431-6.864Zm-.693,3.52a2.942,2.942,0,0,0-.44.259,1.92,1.92,0,0,0-.368.341,1.632,1.632,0,0,0-.253.418,1.265,1.265,0,0,0-.094.489,1.322,1.322,0,0,0,.126.589,1.23,1.23,0,0,0,.341.429,1.526,1.526,0,0,0,.49.258,1.9,1.9,0,0,0,.583.088,2.047,2.047,0,0,0,.83-.187,2.529,2.529,0,0,0,.743-.5Zm5.434-.671a.141.141,0,0,1,.049-.11.168.168,0,0,1,.115-.044q.275.011.539.011H30.4V-7.073h-.957a.17.17,0,0,1-.115-.061.179.179,0,0,1-.061-.127v-.682a.153.153,0,0,1,.061-.11.177.177,0,0,1,.115-.055h5.577a.158.158,0,0,1,.115.05.158.158,0,0,1,.049.115v.693a.177.177,0,0,1-.049.121.151.151,0,0,1-.115.055h-.671v2.761l.528-.066.539-.066a.187.187,0,0,1,.115.016.114.114,0,0,1,.072.082l.077.66a.184.184,0,0,1-.05.154.227.227,0,0,1-.115.077q-.66.1-1.408.165t-1.54.1q-.792.039-1.611.049t-1.622-.011a.151.151,0,0,1-.115-.055.177.177,0,0,1-.049-.121Zm8.481,5.577a.142.142,0,0,1-.055.1.166.166,0,0,1-.11.05h-.935a.171.171,0,0,1-.127-.05.147.147,0,0,1-.049-.1V-.891q0-.121-.044-.154a.266.266,0,0,0-.154-.033H31.163a.168.168,0,0,1-.1-.038.115.115,0,0,1-.049-.094v-.781a.125.125,0,0,1,.049-.1.168.168,0,0,1,.1-.039h5.753a.76.76,0,0,1,.577.176.879.879,0,0,1,.16.594Zm0-4.4a.141.141,0,0,1-.049.11.156.156,0,0,1-.1.044h-.968q-.154,0-.154-.143V-8.558a.126.126,0,0,1,.055-.1.189.189,0,0,1,.121-.044h.968q.132,0,.132.143ZM31.6-4.169l.792-.022q.385-.011.759-.033V-7.073H31.6ZM48.092-3.3q0,.154-.143.154H46.97q-.143,0-.143-.154V-5.346H45.1a2.514,2.514,0,0,1-.319.743,2.312,2.312,0,0,1-.55.6,2.675,2.675,0,0,1-.759.4,2.841,2.841,0,0,1-.935.149,2.755,2.755,0,0,1-1.078-.2,2.547,2.547,0,0,1-.825-.545,2.434,2.434,0,0,1-.528-.787,2.378,2.378,0,0,1-.187-.93,2.446,2.446,0,0,1,.187-.946,2.419,2.419,0,0,1,.528-.792,2.547,2.547,0,0,1,.825-.544,2.755,2.755,0,0,1,1.078-.2,2.775,2.775,0,0,1,.962.16,2.71,2.71,0,0,1,.77.429,2.29,2.29,0,0,1,.55.638,2.644,2.644,0,0,1,.3.775h1.705V-8.558A.126.126,0,0,1,46.97-8.7h.979a.126.126,0,0,1,.143.143Zm0,4.136a.771.771,0,0,1-.176.556.9.9,0,0,1-.649.181H42.4a.982.982,0,0,1-.66-.165A.817.817,0,0,1,41.569.8V-2.453a.12.12,0,0,1,.044-.094.146.146,0,0,1,.1-.038h.968a.168.168,0,0,1,.1.038.115.115,0,0,1,.049.094v1.012h3.993V-2.5a.137.137,0,0,1,.044-.1.137.137,0,0,1,.1-.044h.979a.137.137,0,0,1,.1.044.137.137,0,0,1,.044.1ZM43.956-5.918a1.554,1.554,0,0,0-.1-.55,1.361,1.361,0,0,0-.286-.462,1.435,1.435,0,0,0-.451-.319,1.383,1.383,0,0,0-.583-.121,1.346,1.346,0,0,0-.577.121,1.453,1.453,0,0,0-.445.319,1.361,1.361,0,0,0-.286.462,1.554,1.554,0,0,0-.1.55,1.509,1.509,0,0,0,.1.545,1.373,1.373,0,0,0,.286.457,1.38,1.38,0,0,0,.445.314,1.4,1.4,0,0,0,.577.115A1.439,1.439,0,0,0,43.12-4.6a1.364,1.364,0,0,0,.451-.314,1.373,1.373,0,0,0,.286-.457A1.509,1.509,0,0,0,43.956-5.918Zm2.871,5.5H42.834v.77q0,.187.2.187h3.6q.2,0,.2-.187Z" transform="translate(183 724)" fill="#333"/>
  </g>
</svg>
