<svg xmlns="http://www.w3.org/2000/svg" width="40.92" height="37.159" viewBox="0 0 40.92 37.159">
  <g id="오늘입고" transform="translate(-22.209 -688.447)">
    <g id="트럭" transform="translate(-1197.5 -131.462)">
      <line id="선_3" data-name="선 3" x2="9.541" transform="translate(1238.175 836.857)" fill="none" stroke="#333" stroke-width="1"/>
      <g id="타원_6" data-name="타원 6" transform="translate(1247.375 833.108)" fill="none" stroke="#333" stroke-width="1">
        <circle cx="3.408" cy="3.408" r="3.408" stroke="none"/>
        <circle cx="3.408" cy="3.408" r="2.908" fill="none"/>
      </g>
      <g id="타원_7" data-name="타원 7" transform="translate(1231.701 833.108)" fill="none" stroke="#333" stroke-width="1">
        <circle cx="3.408" cy="3.408" r="3.408" stroke="none"/>
        <circle cx="3.408" cy="3.408" r="2.908" fill="none"/>
      </g>
      <line id="선_4" data-name="선 4" x2="3.408" transform="translate(1228.634 836.857)" fill="none" stroke="#333" stroke-linecap="round" stroke-width="1"/>
      <line id="선_5" data-name="선 5" x2="9.541" transform="translate(1222.5 832.767)" fill="none" stroke="#333" stroke-linecap="round" stroke-width="1"/>
      <line id="선_6" data-name="선 6" x2="8.178" transform="translate(1223.863 828.678)" fill="none" stroke="#333" stroke-linecap="round" stroke-width="1"/>
      <line id="선_7" data-name="선 7" x2="6.815" transform="translate(1225.226 823.908)" fill="none" stroke="#333" stroke-linecap="round" stroke-width="1"/>
      <line id="선_8" data-name="선 8" x2="17.72" transform="translate(1228.634 820.5)" fill="none" stroke="#333" stroke-linecap="round" stroke-width="1"/>
      <line id="선_9" data-name="선 9" y1="16.356" x2="3.408" transform="translate(1242.946 820.5)" fill="none" stroke="#333" stroke-linecap="round" stroke-width="1"/>
      <line id="선_10" data-name="선 10" x1="2.045" transform="translate(1253.85 836.857)" fill="none" stroke="#333" stroke-linecap="round" stroke-width="1"/>
      <path id="패스_32" data-name="패스 32" d="M1256.063,827.563h6.56s5.282.937,4.771,6.134-.937,5.495-.937,5.495" transform="translate(-10.689 -2.249)" fill="none" stroke="#333" stroke-width="1"/>
    </g>
    <path id="패스_141" data-name="패스 141" d="M10.109-.209a.158.158,0,0,1-.055.11.158.158,0,0,1-.11.055H.363A.135.135,0,0,1,.253-.1a.176.176,0,0,1-.044-.11V-.924q0-.176.154-.176H4.521V-3.135A4.779,4.779,0,0,1,3.328-3.4a3.362,3.362,0,0,1-.941-.523,2.326,2.326,0,0,1-.616-.743,2.009,2.009,0,0,1-.22-.941,1.983,1.983,0,0,1,.275-1.034,2.513,2.513,0,0,1,.759-.792,3.711,3.711,0,0,1,1.144-.506,5.536,5.536,0,0,1,1.43-.176,5.536,5.536,0,0,1,1.43.176,3.711,3.711,0,0,1,1.144.506,2.455,2.455,0,0,1,.754.792A2.014,2.014,0,0,1,8.756-5.61a2.009,2.009,0,0,1-.22.941,2.326,2.326,0,0,1-.616.743,3.362,3.362,0,0,1-.94.523,4.779,4.779,0,0,1-1.194.269V-1.1H9.944a.158.158,0,0,1,.11.055.168.168,0,0,1,.055.121ZM5.159-7.073a3.616,3.616,0,0,0-.88.1,2.59,2.59,0,0,0-.732.3,1.646,1.646,0,0,0-.5.462,1.028,1.028,0,0,0-.187.6,1.053,1.053,0,0,0,.187.605,1.617,1.617,0,0,0,.5.467,2.59,2.59,0,0,0,.732.3,3.616,3.616,0,0,0,.88.1,3.616,3.616,0,0,0,.88-.1,2.59,2.59,0,0,0,.731-.3,1.557,1.557,0,0,0,.5-.467,1.076,1.076,0,0,0,.181-.605,1.05,1.05,0,0,0-.181-.6,1.583,1.583,0,0,0-.5-.462,2.59,2.59,0,0,0-.731-.3A3.616,3.616,0,0,0,5.159-7.073ZM19.074-5.445a.111.111,0,0,1-.049.1.185.185,0,0,1-.1.033h-5.9a.934.934,0,0,1-.677-.181.881.881,0,0,1-.17-.61V-8.569a.147.147,0,0,1,.05-.1.147.147,0,0,1,.1-.05h.946a.177.177,0,0,1,.121.05.142.142,0,0,1,.055.1v2.024A.175.175,0,0,0,13.5-6.4a.292.292,0,0,0,.165.033H18.92a.168.168,0,0,1,.1.039.115.115,0,0,1,.049.093Zm1.364,1.76a.158.158,0,0,1-.055.11.158.158,0,0,1-.11.055H10.7a.141.141,0,0,1-.11-.049.168.168,0,0,1-.044-.115v-.7q0-.165.154-.165h9.57a.166.166,0,0,1,.11.049.151.151,0,0,1,.055.115ZM19.173,1.452a.142.142,0,0,1-.055.1.158.158,0,0,1-.1.05H12.87a.83.83,0,0,1-.583-.154.7.7,0,0,1-.154-.506V-.407a.735.735,0,0,1,.148-.512.788.788,0,0,1,.578-.16h4.686a.222.222,0,0,0,.11-.016q.022-.016.022-.115v-.4a.26.26,0,0,0-.022-.143.2.2,0,0,0-.121-.022H12.265a.168.168,0,0,1-.1-.038.115.115,0,0,1-.05-.094V-2.64a.147.147,0,0,1,.05-.1.147.147,0,0,1,.1-.049h5.9a.9.9,0,0,1,.6.143.708.708,0,0,1,.149.517V-.792a.685.685,0,0,1-.149.517.952.952,0,0,1-.6.132H13.508q-.088,0-.11.027A.2.2,0,0,0,13.376,0V.451q0,.1.022.116a.257.257,0,0,0,.121.016h5.489a.191.191,0,0,1,.11.038.132.132,0,0,1,.055.115ZM29.645-3.3q0,.154-.143.154h-.979q-.143,0-.143-.154V-8.558a.126.126,0,0,1,.143-.143H29.5a.126.126,0,0,1,.143.143ZM28.38-.418H24.5v.77q0,.187.2.187h3.487q.2,0,.2-.187ZM29.645.836a.771.771,0,0,1-.176.556.9.9,0,0,1-.649.181H24.068a.982.982,0,0,1-.66-.165A.817.817,0,0,1,23.232.8V-2.453a.12.12,0,0,1,.044-.094.146.146,0,0,1,.1-.038h.968a.168.168,0,0,1,.1.038.115.115,0,0,1,.049.094v1.012H28.38V-2.5a.137.137,0,0,1,.044-.1.137.137,0,0,1,.1-.044H29.5a.137.137,0,0,1,.1.044.137.137,0,0,1,.044.1ZM26.818-5.918a2.319,2.319,0,0,1-.193.93,2.466,2.466,0,0,1-.539.787,2.6,2.6,0,0,1-.836.545,2.8,2.8,0,0,1-1.083.2,2.8,2.8,0,0,1-1.083-.2,2.6,2.6,0,0,1-.836-.545,2.392,2.392,0,0,1-.534-.787,2.378,2.378,0,0,1-.187-.93,2.446,2.446,0,0,1,.187-.946,2.378,2.378,0,0,1,.534-.792,2.6,2.6,0,0,1,.836-.544,2.8,2.8,0,0,1,1.083-.2,2.8,2.8,0,0,1,1.083.2,2.6,2.6,0,0,1,.836.544,2.449,2.449,0,0,1,.539.792A2.385,2.385,0,0,1,26.818-5.918Zm-1.21,0a1.481,1.481,0,0,0-.1-.55,1.388,1.388,0,0,0-.3-.462,1.5,1.5,0,0,0-.457-.319,1.383,1.383,0,0,0-.583-.121,1.383,1.383,0,0,0-.583.121,1.435,1.435,0,0,0-.451.319,1.434,1.434,0,0,0-.292.462,1.481,1.481,0,0,0-.1.55,1.439,1.439,0,0,0,.1.545,1.449,1.449,0,0,0,.292.457,1.364,1.364,0,0,0,.451.314,1.439,1.439,0,0,0,.583.115A1.439,1.439,0,0,0,24.75-4.6a1.427,1.427,0,0,0,.457-.314,1.4,1.4,0,0,0,.3-.457A1.439,1.439,0,0,0,25.608-5.918ZM41.129-.286a.158.158,0,0,1-.055.11.158.158,0,0,1-.11.055H31.383a.135.135,0,0,1-.11-.055.176.176,0,0,1-.044-.11v-.726a.168.168,0,0,1,.044-.115.141.141,0,0,1,.11-.049h3.7V-4.235q0-.165.154-.165h.957q.154,0,.154.165v3.058h4.62a.158.158,0,0,1,.11.055.158.158,0,0,1,.055.11ZM39.864-7.161q0,1.485-.1,2.717A18.421,18.421,0,0,1,39.49-2.4a.425.425,0,0,1-.071.154.138.138,0,0,1-.138.055l-.869-.077a.145.145,0,0,1-.121-.077A.218.218,0,0,1,38.28-2.5q.077-.407.138-.94t.1-1.1q.038-.566.06-1.116t.022-1q0-.154-.071-.192a.5.5,0,0,0-.225-.039H32.89a.191.191,0,0,1-.11-.038.112.112,0,0,1-.055-.093V-7.81a.108.108,0,0,1,.055-.1.212.212,0,0,1,.11-.033h6.237a.749.749,0,0,1,.545.187A.8.8,0,0,1,39.864-7.161Z" transform="translate(22 724)" fill="#333"/>
  </g>
</svg>
