<svg xmlns="http://www.w3.org/2000/svg" width="49.478" height="40.385" viewBox="0 0 49.478 40.385">
  <g id="그룹_233" data-name="그룹 233" transform="translate(-346.957 -685.375)">
    <g id="user_1_" data-name="user (1)" transform="translate(357 685.875)">
      <g id="그룹_30" data-name="그룹 30" transform="translate(0)">
        <path id="패스_33" data-name="패스 33" d="M18.9,14.313a11.028,11.028,0,0,0-4.207-2.639,6.4,6.4,0,1,0-7.242,0A11.088,11.088,0,0,0,0,22.141H1.73a9.341,9.341,0,0,1,18.681,0h1.73A11,11,0,0,0,18.9,14.313ZM11.07,11.07a4.67,4.67,0,1,1,4.67-4.67A4.676,4.676,0,0,1,11.07,11.07Z" transform="translate(0)" fill="#ec636b" stroke="#fff" stroke-width="1"/>
        <text id="MY" transform="translate(14.22 22.208)" fill="#ec636b" font-size="8" font-family="NanumGothicBold, NanumGothic" letter-spacing="-0.05em"><tspan x="0" y="0">MY</tspan></text>
        <path id="패스_127" data-name="패스 127" d="M.938,21.375v.25l20.25-.25s-.562-8.687-8.937-9.562S.938,20.188.938,20.188" fill="#ec636b"/>
      </g>
      <path id="교차_2" data-name="교차 2" d="M-290.741-7504.375v-3.454l-1.383,3.454h-1.616l-1.384-3.454v3.454h-.937v-4.881a.251.251,0,0,1,.025-.14c.017-.019.068-.028.153-.028h.952c.038,0,.06.006.068.019s.019.04.036.077l1.9,4.708,1.895-4.708c.017-.038.028-.064.036-.077s.032-.019.07-.019h.95c.087,0,.138.009.153.028a.235.235,0,0,1,.025.14v4.881Z" transform="translate(311 7526)" fill="#fff"/>
      <circle id="타원_81" data-name="타원 81" cx="6" cy="6" r="6" transform="translate(5 0.125)" fill="#ec636b"/>
    </g>
    <path id="패스_150" data-name="패스 150" d="M10.252-3.8a.141.141,0,0,1-.05.11.156.156,0,0,1-.1.044H8.6V1.6a.126.126,0,0,1-.143.143H7.48A.126.126,0,0,1,7.337,1.6V-8.558A.126.126,0,0,1,7.48-8.7h.979a.126.126,0,0,1,.143.143V-4.7h1.5a.168.168,0,0,1,.1.038.115.115,0,0,1,.05.094ZM6-2.112a.819.819,0,0,1-.176.6.839.839,0,0,1-.594.17H1.771a.917.917,0,0,1-.638-.17.819.819,0,0,1-.176-.6V-7.15a.776.776,0,0,1,.17-.577.857.857,0,0,1,.589-.159H5.225a.927.927,0,0,1,.594.148A.756.756,0,0,1,6-7.15ZM4.73-6.71A.17.17,0,0,0,4.7-6.826a.17.17,0,0,0-.115-.027H2.354a.2.2,0,0,0-.115.022q-.028.022-.028.11v4.2q0,.1.028.121a.2.2,0,0,0,.115.022H4.587A.2.2,0,0,0,4.7-2.4q.027-.022.027-.121ZM19.4,1.6a.126.126,0,0,1-.143.143h-.979a.126.126,0,0,1-.143-.143V-8.558a.126.126,0,0,1,.143-.143h.979a.126.126,0,0,1,.143.143ZM15.433-4.422a4.532,4.532,0,0,0-.1-.963,2.955,2.955,0,0,0-.286-.8,1.622,1.622,0,0,0-.457-.539,1.022,1.022,0,0,0-.622-.2,1.022,1.022,0,0,0-.622.2,1.622,1.622,0,0,0-.457.539,2.955,2.955,0,0,0-.286.8,4.532,4.532,0,0,0-.1.963,4.478,4.478,0,0,0,.1.951,3.042,3.042,0,0,0,.286.8,1.667,1.667,0,0,0,.457.55,1,1,0,0,0,.622.2,1,1,0,0,0,.622-.2,1.667,1.667,0,0,0,.457-.55,3.042,3.042,0,0,0,.286-.8A4.478,4.478,0,0,0,15.433-4.422ZM13.97-.792a2.412,2.412,0,0,1-1.133-.264,2.431,2.431,0,0,1-.852-.743,3.579,3.579,0,0,1-.533-1.149,5.479,5.479,0,0,1-.187-1.474,5.569,5.569,0,0,1,.187-1.5,3.447,3.447,0,0,1,.533-1.138,2.421,2.421,0,0,1,.852-.726,2.454,2.454,0,0,1,1.133-.259,2.445,2.445,0,0,1,1.139.259,2.436,2.436,0,0,1,.847.726,3.447,3.447,0,0,1,.534,1.138,5.569,5.569,0,0,1,.187,1.5,5.569,5.569,0,0,1-.187,1.5,3.512,3.512,0,0,1-.534,1.144,2.414,2.414,0,0,1-.847.732A2.445,2.445,0,0,1,13.97-.792Zm6.963-1.342a.136.136,0,0,1,.154-.154h.77V-6.732h-.682a.177.177,0,0,1-.116-.055A.162.162,0,0,1,21-6.908V-7.59a.17.17,0,0,1,.06-.115.17.17,0,0,1,.116-.061h4.73a.158.158,0,0,1,.115.049.171.171,0,0,1,.049.127V-6.9a.578.578,0,0,1-.055.088q-.055.077-.11.077h-.7V-2.4q.253-.022.479-.055l.434-.066a.187.187,0,0,1,.115.017.114.114,0,0,1,.072.082l.1.682a.136.136,0,0,1-.028.137.206.206,0,0,1-.1.061q-.495.1-1.117.159t-1.3.094q-.682.033-1.386.038t-1.375-.016a.141.141,0,0,1-.11-.05.168.168,0,0,1-.044-.115Zm6.094-6.237q0-.143.154-.143h.891q.154,0,.154.143v9.6a.136.136,0,0,1-.154.154h-.891a.136.136,0,0,1-.154-.154V-4.125H25.938a.168.168,0,0,1-.115-.044.13.13,0,0,1-.049-.1v-.759a.115.115,0,0,1,.049-.093.183.183,0,0,1,.115-.038h1.089Zm3.19,9.988a.126.126,0,0,1-.143.143h-.957a.126.126,0,0,1-.143-.143V-8.558q0-.143.154-.143h.946a.126.126,0,0,1,.143.143ZM23.012-2.3q.275-.011.528-.011t.506-.022v-4.4H23.012ZM40.084,1.6a.126.126,0,0,1-.143.143h-.979a.126.126,0,0,1-.143-.143V-8.558a.126.126,0,0,1,.143-.143h.979a.126.126,0,0,1,.143.143ZM36.113-4.422a4.532,4.532,0,0,0-.1-.963,2.955,2.955,0,0,0-.286-.8,1.622,1.622,0,0,0-.457-.539,1.022,1.022,0,0,0-.621-.2,1.022,1.022,0,0,0-.622.2,1.622,1.622,0,0,0-.457.539,2.955,2.955,0,0,0-.286.8,4.532,4.532,0,0,0-.1.963,4.478,4.478,0,0,0,.1.951,3.042,3.042,0,0,0,.286.8,1.667,1.667,0,0,0,.457.55,1,1,0,0,0,.622.2,1,1,0,0,0,.621-.2,1.667,1.667,0,0,0,.457-.55,3.042,3.042,0,0,0,.286-.8A4.478,4.478,0,0,0,36.113-4.422ZM34.65-.792a2.412,2.412,0,0,1-1.133-.264,2.431,2.431,0,0,1-.853-.743,3.579,3.579,0,0,1-.534-1.149,5.479,5.479,0,0,1-.187-1.474,5.569,5.569,0,0,1,.187-1.5,3.447,3.447,0,0,1,.534-1.138,2.421,2.421,0,0,1,.853-.726,2.454,2.454,0,0,1,1.133-.259,2.445,2.445,0,0,1,1.139.259,2.436,2.436,0,0,1,.847.726,3.447,3.447,0,0,1,.533,1.138,5.569,5.569,0,0,1,.187,1.5,5.568,5.568,0,0,1-.187,1.5,3.512,3.512,0,0,1-.533,1.144,2.414,2.414,0,0,1-.847.732A2.445,2.445,0,0,1,34.65-.792Zm7.942-.121a.285.285,0,0,1-.187.044.2.2,0,0,1-.154-.1l-.429-.572a.159.159,0,0,1-.028-.187.338.338,0,0,1,.126-.132,9.392,9.392,0,0,0,1.32-.99,10.279,10.279,0,0,0,1.127-1.177,8.371,8.371,0,0,0,.853-1.259,5.441,5.441,0,0,0,.506-1.238.392.392,0,0,0,.011-.242q-.033-.055-.22-.055H42.68a.125.125,0,0,1-.1-.049.183.183,0,0,1-.038-.116v-.737a.136.136,0,0,1,.154-.154h3.586a1.179,1.179,0,0,1,.671.165.5.5,0,0,1,.242.429,1.987,1.987,0,0,1-.022.292,2.322,2.322,0,0,1-.055.269A7.982,7.982,0,0,1,46.7-5.55a9.068,9.068,0,0,1-.632,1.183q.209.286.484.6t.572.611q.3.3.583.556a5.929,5.929,0,0,0,.517.423.271.271,0,0,1,.1.143.189.189,0,0,1-.039.176l-.473.539a.263.263,0,0,1-.363.022,4.643,4.643,0,0,1-.468-.368q-.27-.237-.556-.523t-.561-.605q-.275-.319-.5-.605a12.125,12.125,0,0,1-1.254,1.326A10.876,10.876,0,0,1,42.592-.913ZM50.435,1.6q0,.143-.154.143h-.968a.168.168,0,0,1-.1-.038.125.125,0,0,1-.049-.1V-8.558a.13.13,0,0,1,.049-.1.156.156,0,0,1,.1-.044h.968q.154,0,.154.143Z" transform="translate(346 724)" fill="#ec636b"/>
  </g>
</svg>
