<svg xmlns="http://www.w3.org/2000/svg" width="42" height="41" viewBox="0 0 42 41">
  <g id="그룹_243" data-name="그룹 243" transform="translate(2077 -1547)">
    <g id="공급업체" transform="translate(-3570 679.947)">
      <g id="그룹_232" data-name="그룹 232" transform="translate(1306 180.437)">
        <path id="패스_75" data-name="패스 75" d="M1253.84,494.344l-10.25,6.719.281,13.781,1.156.75,18.625-.281,1.125-.969-.156-13.656Z" transform="translate(-1047 193)" fill="#ec636b"/>
      </g>
      <line id="선_12" data-name="선 12" x2="3.221" transform="translate(1511.573 871.167)" fill="none" stroke="#fff" stroke-linecap="round" stroke-width="1"/>
      <g id="합치기_1" data-name="합치기 1" transform="translate(1502 866.982)">
        <path id="패스_155" data-name="패스 155" d="M2,22.441a2,2,0,0,1-2-2V7.949A2,2,0,0,1,.71,6.42a2.255,2.255,0,0,1,.276-.207l9-5.829a2,2,0,0,1,2.15,0l9.285,5.829a1.881,1.881,0,0,1,.732.837,1.991,1.991,0,0,1,.213.9V20.441a2,2,0,0,1-2,2Z" fill="none"/>
        <path id="패스_156" data-name="패스 156" d="M20.368,21.441a1,1,0,0,0,1-1V7.949a.988.988,0,0,0-.106-.448l-.013-.025-.011-.026a.891.891,0,0,0-.35-.392L11.607,1.231l0,0,0,0a1,1,0,0,0-1.073,0l-9,5.827,0,0,0,0a1.262,1.262,0,0,0-.154.115l-.007.006-.007.006A1,1,0,0,0,1,7.949V20.441a1,1,0,0,0,1,1H20.368m0,1H2a2,2,0,0,1-2-2V7.949A2,2,0,0,1,.71,6.42a2.256,2.256,0,0,1,.276-.207l9-5.829a2,2,0,0,1,2.15,0l9.285,5.829a1.881,1.881,0,0,1,.732.837,1.991,1.991,0,0,1,.213.9V20.441A2,2,0,0,1,20.368,22.441Z" fill="#ec636b"/>
      </g>
      <g id="사각형_6" data-name="사각형 6" transform="translate(1505.344 873.742)">
        <path id="패스_157" data-name="패스 157" d="M3,0h9.68a3,3,0,0,1,3,3V16.68H0V3A3,3,0,0,1,3,0Z" fill="none"/>
        <path id="패스_158" data-name="패스 158" d="M3,.5h9.68A2.5,2.5,0,0,1,15.18,3V15.68a.5.5,0,0,1-.5.5H1a.5.5,0,0,1-.5-.5V3A2.5,2.5,0,0,1,3,.5Z" fill="none" stroke="#fff" stroke-width="1"/>
      </g>
      <line id="선_11" data-name="선 11" x2="15.389" transform="translate(1505.49 877.968)" fill="none" stroke="#fff" stroke-width="1"/>
      <g id="그룹_29" data-name="그룹 29" transform="translate(1509.129 882.312)">
        <g id="사각형_7" data-name="사각형 7">
          <path id="패스_159" data-name="패스 159" d="M2,0h.326a2,2,0,0,1,2,2V8.111H0V2A2,2,0,0,1,2,0Z" fill="none"/>
          <path id="패스_160" data-name="패스 160" d="M2,.5h.326A1.5,1.5,0,0,1,3.826,2V7.111a.5.5,0,0,1-.5.5H1a.5.5,0,0,1-.5-.5V2A1.5,1.5,0,0,1,2,.5Z" fill="none" stroke="#fff" stroke-width="1"/>
        </g>
        <g id="사각형_8" data-name="사각형 8" transform="translate(7.845 3.785) rotate(90)">
          <path id="패스_161" data-name="패스 161" d="M2,0H4.326V7.845H0V2A2,2,0,0,1,2,0Z" fill="none"/>
          <path id="패스_162" data-name="패스 162" d="M2,.5H3.326a.5.5,0,0,1,.5.5V6.845a.5.5,0,0,1-.5.5H1a.5.5,0,0,1-.5-.5V2A1.5,1.5,0,0,1,2,.5Z" fill="none" stroke="#fff" stroke-width="1"/>
        </g>
      </g>
    </g>
    <text id="추천업체" transform="translate(-2077 1585)" fill="#ec636b" font-size="11" font-family="NanumGothicBold, NanumGothic"><tspan x="0" y="0">추천업체</tspan></text>
  </g>
</svg>
