<svg xmlns="http://www.w3.org/2000/svg" width="42" height="37.496" viewBox="0 0 42 37.496">
  <g id="그룹_251" data-name="그룹 251" transform="translate(2274 -1495.329)">
    <text id="비즈멤버" transform="translate(-2274 1529.825)" fill="#333" font-size="11" font-family="NanumGothicBold, NanumGothic"><tspan x="0" y="0">비즈멤버</tspan></text>
    <g id="그룹_235" data-name="그룹 235" transform="translate(13 105.09)">
      <g id="그룹_234" data-name="그룹 234" transform="translate(-2279 1390.739)">
        <g id="people-outline_1_" data-name="people-outline (1)" transform="translate(0)">
          <path id="패스_143" data-name="패스 143" d="M276.587,99.7a3.406,3.406,0,1,1-6.787,0,3.406,3.406,0,1,1,6.787,0Z" transform="translate(-255.742 -96)" fill="none" stroke="#333" stroke-linecap="round" stroke-linejoin="round" stroke-width="1"/>
          <path id="패스_144" data-name="패스 144" d="M199.408,304c-3.351,0-6.573,1.664-7.38,4.906a.653.653,0,0,0,.6.853h13.556a.654.654,0,0,0,.6-.853C205.982,305.612,202.759,304,199.408,304Z" transform="translate(-181.361 -291.58)" fill="none" stroke="#333" stroke-miterlimit="10" stroke-width="1"/>
          <path id="패스_145" data-name="패스 145" d="M99.293,130.979a2.736,2.736,0,1,1-5.45,0,2.736,2.736,0,1,1,5.45,0Z" transform="translate(-90.654 -126.355)" fill="none" stroke="#333" stroke-linecap="round" stroke-linejoin="round" stroke-width="1"/>
          <path id="패스_146" data-name="패스 146" d="M40.937,295.139a7.2,7.2,0,0,0-3.034-.589c-2.674,0-5.25,1.329-5.895,3.918a.523.523,0,0,0,.482.681h5.773" transform="translate(-31.99 -282.616)" fill="none" stroke="#333" stroke-linecap="round" stroke-miterlimit="10" stroke-width="1"/>
        </g>
      </g>
    </g>
  </g>
</svg>
