<svg xmlns="http://www.w3.org/2000/svg" width="42" height="41.025" viewBox="0 0 42 41.025">
  <g id="그룹_241" data-name="그룹 241" transform="translate(1933 -1492.8)">
    <text id="채팅목록" transform="translate(-1933 1530.825)" fill="#333" font-size="11" font-family="NanumGothicBold, NanumGothic"><tspan x="0" y="0">채팅목록</tspan></text>
    <g id="채팅" transform="translate(-2202 806.625)">
      <g id="chat" transform="translate(278 686.351)">
        <g id="그룹_25" data-name="그룹 25" transform="translate(0 0.027)">
          <g id="그룹_24" data-name="그룹 24">
            <path id="패스_28" data-name="패스 28" d="M9.242.027A9.252,9.252,0,0,0,0,9.268,9.132,9.132,0,0,0,1.4,14.16L.051,17.533a.711.711,0,0,0,.926.924L4.35,17.106a9.121,9.121,0,0,0,4.892,1.4,9.241,9.241,0,1,0,0-18.482Zm0,17.06a7.707,7.707,0,0,1-4.406-1.363.711.711,0,0,0-.67-.075l-2.178.873.873-2.178a.716.716,0,0,0-.075-.67A7.707,7.707,0,0,1,1.422,9.268a7.819,7.819,0,1,1,7.819,7.819Z" transform="translate(0 -0.027)" fill="#333" stroke="#fff" stroke-width="0.4"/>
          </g>
        </g>
        <g id="그룹_27" data-name="그룹 27" transform="translate(9.852 9.879)">
          <g id="그룹_26" data-name="그룹 26">
            <path id="패스_29" data-name="패스 29" d="M233.5,230.951a7.833,7.833,0,0,0-.491-8.887.71.71,0,0,0-1.123.87,6.413,6.413,0,0,1,.23,7.535.71.71,0,0,0-.074.667l.623,1.562-1.562-.623a.71.71,0,0,0-.667.074,6.5,6.5,0,0,1-7.535-.232.711.711,0,0,0-.873,1.123,7.957,7.957,0,0,0,8.888.49l2.757,1.1a.765.765,0,0,0,.266.05.71.71,0,0,0,.661-.974Z" transform="translate(-221.75 -221.787)" fill="#333" stroke="#fff" stroke-width="0.4"/>
          </g>
        </g>
      </g>
    </g>
  </g>
</svg>
