<svg xmlns="http://www.w3.org/2000/svg" width="42" height="40.825" viewBox="0 0 42 40.825">
  <g id="그룹_242" data-name="그룹 242" transform="translate(1858 -1493)">
    <g id="채팅" transform="translate(-2128 807)">
      <g id="chat" transform="translate(278 686.351)">
        <g id="그룹_27" data-name="그룹 27" transform="translate(9.852 9.879)">
          <g id="그룹_26" data-name="그룹 26">
            <path id="패스_29" data-name="패스 29" d="M233.5,230.951a7.833,7.833,0,0,0-.491-8.887.71.71,0,0,0-1.123.87,6.413,6.413,0,0,1,.23,7.535.71.71,0,0,0-.074.667l.623,1.562-1.562-.623a.71.71,0,0,0-.667.074,6.5,6.5,0,0,1-7.535-.232.711.711,0,0,0-.873,1.123,7.957,7.957,0,0,0,8.888.49l2.757,1.1a.765.765,0,0,0,.266.05.71.71,0,0,0,.661-.974Z" transform="translate(-221.75 -221.787)" fill="#ec636b" stroke="#fff" stroke-width="0.4"/>
            <circle id="타원_69" data-name="타원 69" cx="8" cy="8" r="8" transform="translate(-2.852 -3.23)" fill="#ec636b"/>
            <circle id="타원_68" data-name="타원 68" cx="10" cy="10" r="10" transform="translate(-9.852 -10.23)" fill="#fff"/>
          </g>
          <g id="그룹_24" data-name="그룹 24" transform="translate(-9.852 -9.852)">
            <path id="패스_28" data-name="패스 28" d="M9.242.027A9.252,9.252,0,0,0,0,9.268,9.132,9.132,0,0,0,1.4,14.16L.051,17.533a.711.711,0,0,0,.926.924L4.35,17.106a9.121,9.121,0,0,0,4.892,1.4,9.241,9.241,0,1,0,0-18.482Zm0,17.06a7.707,7.707,0,0,1-4.406-1.363.711.711,0,0,0-.67-.075l-2.178.873.873-2.178a.716.716,0,0,0-.075-.67A7.707,7.707,0,0,1,1.422,9.268a7.819,7.819,0,1,1,7.819,7.819Z" transform="translate(0 -0.027)" fill="#ec636b" stroke="#fff" stroke-width="0.4"/>
          </g>
          <path id="패스_93" data-name="패스 93" d="M526.667,7753.92l-.417,3.646,3.25-1.312s4.625,3.25,9.25.25a8.677,8.677,0,0,0,3.75-8.312s-2.125-7.125-8.812-6.687-7.8,7.141-7.8,7.141Z" transform="translate(-534.852 -7750.23)" fill="#ec636b"/>
        </g>
      </g>
    </g>
    <text id="채팅목록" transform="translate(-1858 1530.825)" fill="#ec636b" font-size="11" font-family="NanumGothicBold, NanumGothic"><tspan x="0" y="0">채팅목록</tspan></text>
  </g>
</svg>
